<svg width="29" height="29" viewBox="0 0 29 29" fill="none" xmlns="http://www.w3.org/2000/svg">
<g clip-path="url(#clip0_13_100)">
<path d="M21.75 25.6457V10.2128C23.0864 9.49508 23.8126 8.08375 23.8126 6.46217C23.8126 4.19775 22.034 2.34054 19.8022 2.21487C18.8705 0.919542 17.3118 0 15.4824 0C14.3091 0 13.1322 0.389083 12.1643 1.16483C10.4714 0.613833 8.54533 1.05367 7.26933 2.42392C5.54987 2.45654 4.05154 3.06071 3.20208 4.5385C2.58463 5.61271 2.494 6.82467 2.44929 8.07771C2.37196 10.3095 0 10.3337 0 13.2397C0 15.6793 1.86325 17.5402 4.83333 16.6255V25.6469C4.83333 26.4492 4.42733 27.1005 3.625 27.1005V29H22.9583V27.0993C22.1548 27.0993 21.75 26.448 21.75 25.6457ZM1.91883 12.9775C2.19675 11.1179 4.25454 10.9692 4.35362 8.14417C4.42975 5.97883 4.61946 4.01892 8.21183 4.36692C8.67583 3.45946 9.61833 2.83838 10.707 2.83838C11.4212 2.83838 12.0737 3.10663 12.5679 3.54646C13.1648 2.56288 14.2475 1.90433 15.4824 1.90433C17 1.90433 18.2845 2.89517 18.7268 4.26662C18.9853 4.16754 19.2657 4.11438 19.5593 4.11438C20.8558 4.11438 21.9083 5.16683 21.9083 6.46338C21.9083 7.75992 20.8558 8.81238 19.5593 8.81238C18.8017 8.81238 18.1286 8.45471 17.6997 7.89888C16.2509 9.14104 14.0517 8.95617 12.8361 7.45663C11.8755 8.58038 10.1826 8.84138 8.81358 7.70071C8.35442 7.31888 7.91458 7.14971 7.50858 7.14971C5.83021 7.14971 4.74271 10.0388 5.35896 12.6235C6.16371 16.0092 1.53579 15.5319 1.91883 12.9775ZM7.26088 14.5C7.38896 13.897 7.37567 12.8748 7.21133 12.1836C7.04458 11.4864 7.04821 10.695 7.22221 10.011C7.33096 9.58208 7.47596 9.30658 7.58229 9.15433L7.59558 9.164C8.51996 9.93492 9.60383 10.3433 10.73 10.3433C11.4405 10.3433 12.1329 10.1802 12.7612 9.8745C13.5732 10.3603 14.5097 10.6237 15.4848 10.6237C16.1953 10.6237 16.8937 10.4799 17.539 10.2092C18.119 10.5234 18.6518 10.6986 19.3333 10.7155V14.5H7.26088ZM22.9583 23.4658V20.8558C26.7694 18.6446 27.672 13.2917 24.7527 13.2917H22.9583V10.881H25.1877C27.7796 10.881 29 12.7346 29 15.0522C29 18.1202 26.8359 22.0001 22.9583 23.4658Z" fill="#DF9928"/>
</g>
<defs>
<clipPath id="clip0_13_100">
<rect width="29" height="29" fill="white"/>
</clipPath>
</defs>
</svg>
