<svg width="37" height="37" viewBox="0 0 37 37" fill="none" xmlns="http://www.w3.org/2000/svg">
<g clip-path="url(#clip0_16_288)">
<path d="M23.0215 2.68919C21.8846 1.3769 20.1622 0.563965 18.2866 0.563965C16.5641 0.563965 14.962 1.24463 13.8251 2.38898C10.7235 2.04122 7.99487 4.3433 7.99487 7.29186C7.99487 8.62793 8.55962 9.84064 9.47213 10.7309C9.53455 15.8819 12.0744 20.1339 12.4445 24.6251C12.654 27.1352 12.0254 30.8462 11.5632 33.1156C11.1411 35.1947 14.7807 36.2321 18.4233 36.2321C22.0719 36.2321 25.7249 35.1917 25.3043 33.117C24.8421 30.8462 24.2149 27.1367 24.42 24.6266C24.7931 20.1353 27.3344 15.8804 27.3939 10.7264C28.2648 9.86591 28.8013 8.70224 28.8013 7.41967C28.8013 4.52015 26.0756 2.26563 23.0215 2.68919ZM16.6384 33.4886C16.2357 33.4678 15.8315 33.4366 15.451 33.389C14.9293 33.3236 14.5771 33.2419 14.3468 33.172C14.8669 30.5252 15.396 27.0029 15.182 24.4244C14.9933 22.1476 14.3483 20.0477 13.7255 18.0161C13.2455 16.4437 12.5426 14.1892 12.3077 12.1561C13.1801 12.3003 14.0436 12.2349 14.8625 11.9748C15.2325 15.8834 17.1764 19.2912 17.4722 23.506C17.7263 27.1426 17.2805 31.1196 16.6384 33.4886ZM22.6218 9.80497C21.0494 11.2347 22.8625 13.6021 23.0007 14.8862C23.1449 16.2178 22.2725 17.2225 20.8978 17.2225C19.5603 17.2225 18.7726 16.1509 18.8796 14.8862C18.9792 13.6883 20.7522 11.3996 19.425 9.81835C18.1053 10.2062 16.6191 9.90455 15.5788 8.9207C15.0468 9.61474 14.1833 10.0651 13.2128 10.0651C11.5944 10.0651 10.2836 8.8241 10.2836 7.29335C10.2836 5.76259 11.5944 4.52164 13.2128 4.52164C13.779 4.52164 14.3096 4.67471 14.7584 4.94074C15.3425 3.64182 16.7023 2.7308 18.2866 2.7308C20.0551 2.7308 21.5443 3.86772 21.9842 5.41185C22.4627 5.03437 23.078 4.8055 23.7513 4.8055C25.2761 4.8055 26.5111 5.9766 26.5111 7.41967C26.5126 9.32791 24.4289 10.5748 22.6218 9.80497Z" fill="#DF9928"/>
</g>
<defs>
<clipPath id="clip0_16_288">
<rect width="35.6681" height="35.6681" fill="white" transform="translate(0.563965 0.563965)"/>
</clipPath>
</defs>
</svg>
