<svg width="19" height="19" viewBox="0 0 19 19" fill="none" xmlns="http://www.w3.org/2000/svg">
<path d="M12.6666 8.70833C12.6666 10.4571 11.2488 11.875 9.49996 11.875C7.75117 11.875 6.33329 10.4571 6.33329 8.70833V3.16667C6.33329 1.41787 7.75117 0 9.49996 0C11.2488 0 12.6666 1.41787 12.6666 3.16667V8.70833ZM15.8333 7.125V8.70833C15.8333 12.2059 12.9975 15.0417 9.49996 15.0417C6.00238 15.0417 3.16663 12.2059 3.16663 8.70833V7.125H4.74996V8.70833C4.74996 11.328 6.88033 13.4583 9.49996 13.4583C12.1196 13.4583 14.25 11.328 14.25 8.70833V7.125H15.8333ZM10.2916 17.4167V15.8333H8.70829V17.4167H5.54163V19H13.4583V17.4167H10.2916Z" fill="#DF9928"/>
</svg>
