<?xml version="1.0" standalone="no"?>
<!DOCTYPE svg PUBLIC "-//W3C//DTD SVG 20010904//EN"
 "http://www.w3.org/TR/2001/REC-SVG-20010904/DTD/svg10.dtd">
<svg version="1.0" xmlns="http://www.w3.org/2000/svg"
 width="3000.000000pt" height="2000.000000pt" viewBox="0 0 3000.000000 2000.000000"
 preserveAspectRatio="xMidYMid meet">

<g transform="translate(0.000000,2000.000000) scale(0.100000,-0.100000)"
fill="#000000" stroke="none">
<path d="M3857 18775 c-504 -69 -1024 -375 -1484 -873 -62 -68 -120 -134 -129
-147 -25 -38 -16 -214 12 -252 42 -57 79 -73 166 -73 173 0 339 90 552 298 72
71 125 130 368 408 48 54 116 128 153 164 93 92 85 111 136 -315 46 -384 123
-556 270 -595 75 -21 162 24 229 118 39 54 39 54 25 142 -2 14 -4 34 -5 45
l-1 20 -11 -20 c-17 -32 -61 -76 -90 -91 -15 -8 -53 -14 -84 -14 -110 0 -185
75 -186 184 -2 188 243 261 345 103 l27 -41 0 30 c0 47 36 176 63 231 37 72
98 136 166 172 34 18 66 41 71 52 11 19 70 28 70 10 0 -5 48 -11 108 -13 165
-8 325 -66 504 -185 45 -29 85 -53 89 -53 4 0 20 7 35 15 46 24 92 29 149 16
121 -27 191 -158 151 -281 -19 -58 -25 -43 62 -149 23 -29 46 -60 50 -68 8
-13 15 -12 53 7 49 26 169 136 169 156 0 23 -368 385 -485 478 -137 109 -330
238 -455 305 -354 187 -741 264 -1093 216z m-1194 -829 c96 -40 133 -170 76
-263 -27 -44 -117 -88 -164 -80 -112 18 -181 113 -161 221 8 40 46 90 91 117
36 23 112 25 158 5z"/>
<path d="M18579 18786 c-2 -2 -47 -7 -99 -10 -52 -4 -99 -12 -105 -18 -7 -8
-5 -9 6 -5 9 3 16 0 16 -8 0 -12 -6 -11 -35 0 -19 8 -39 12 -46 8 -6 -5 -20
-9 -31 -10 -30 -2 -89 -14 -94 -19 -2 -2 48 -2 112 -1 110 3 127 1 110 -17 -4
-4 -9 -19 -11 -33 -4 -34 -20 -63 -33 -63 -6 0 -8 7 -5 16 6 15 4 15 -16 2
-12 -8 -22 -24 -23 -36 -2 -21 -1 -21 39 4 23 13 40 28 39 34 -2 5 3 7 10 4 7
-2 24 5 38 17 l24 22 -27 -7 c-15 -3 -29 -2 -32 3 -3 5 12 11 33 13 22 2 37 0
35 -4 -3 -4 2 -5 10 -2 9 3 13 10 10 15 -3 5 2 6 10 3 9 -3 16 -1 16 6 0 6 4
9 10 5 5 -3 26 5 47 18 21 13 53 29 70 36 32 13 36 31 7 31 -8 0 -12 -4 -9
-10 3 -6 -4 -10 -17 -10 -18 0 -20 2 -8 10 11 7 8 10 -16 10 -17 0 -33 -2 -35
-4z m-135 -35 c4 -5 -3 -7 -14 -4 -23 6 -26 13 -6 13 8 0 17 -4 20 -9z m-104
-5 c0 -2 -7 -7 -16 -10 -8 -3 -12 -2 -9 4 6 10 25 14 25 6z m174 -5 c3 -5 -6
-11 -21 -14 -26 -5 -26 -4 -8 9 22 17 22 17 29 5z m64 2 c-10 -2 -26 -2 -35 0
-10 3 -2 5 17 5 19 0 27 -2 18 -5z m-38 -23 c-8 -5 -22 -10 -30 -10 -13 0 -13
1 0 10 8 5 22 10 30 10 13 0 13 -1 0 -10z m-62 -17 c-10 -2 -26 -2 -35 0 -10
3 -2 5 17 5 19 0 27 -2 18 -5z m-121 -99 c-3 -3 -12 -4 -19 -1 -8 3 -5 6 6 6
11 1 17 -2 13 -5z"/>
<path d="M25740 18780 c-468 -58 -919 -299 -1364 -730 -138 -134 -352 -368
-343 -376 2 -3 34 9 71 25 178 80 505 193 754 261 316 85 675 141 1002 157
l145 7 34 70 c81 165 232 247 431 233 41 -3 98 -12 125 -19 44 -12 55 -12 95
4 69 26 114 23 151 -10 24 -22 32 -37 33 -67 1 -38 4 -41 91 -98 91 -60 158
-113 250 -198 35 -32 65 -50 100 -59 71 -18 264 -76 299 -89 16 -7 30 -10 32
-8 5 5 -177 187 -274 274 -191 172 -393 311 -602 417 -194 99 -358 155 -565
192 -99 18 -364 26 -465 14z m127 -201 c86 -42 122 -163 70 -240 -36 -54 -82
-79 -144 -79 -64 0 -103 18 -137 63 -85 112 -5 272 138 276 16 1 49 -8 73 -20z
m-979 -323 c75 -39 71 -159 -6 -195 -61 -29 -134 4 -153 68 -28 94 70 173 159
127z"/>
<path d="M18105 18694 c-15 -8 -32 -11 -38 -7 -6 4 -7 1 -2 -7 6 -10 4 -12 -9
-7 -10 4 -15 3 -11 -3 3 -6 -2 -10 -12 -11 -39 -1 -55 -9 -83 -39 -16 -17 -34
-29 -40 -25 -6 3 -8 11 -4 16 3 5 9 7 14 4 4 -3 14 3 21 13 13 15 12 16 -3 3
-10 -7 -18 -11 -18 -7 0 8 -133 -63 -141 -76 -4 -6 -12 -7 -18 -4 -11 7 -13 1
-13 -29 0 -30 2 -35 22 -35 28 0 70 39 70 66 0 13 5 26 12 30 7 4 8 3 4 -4 -4
-7 7 -10 33 -9 24 1 35 4 28 9 -8 5 -7 8 5 8 9 0 27 12 40 28 24 27 38 35 71
36 9 0 17 4 17 9 0 4 5 5 12 1 6 -4 31 -9 55 -11 42 -3 43 -3 43 26 0 35 -19
44 -55 25z m9 -19 c-10 -8 -25 -15 -33 -15 -11 0 -9 4 5 15 10 8 25 15 33 15
11 0 9 -4 -5 -15z m36 -9 c0 -2 -7 -6 -15 -10 -8 -3 -15 -1 -15 4 0 6 7 10 15
10 8 0 15 -2 15 -4z m-260 -86 c0 -5 -2 -10 -4 -10 -3 0 -8 5 -11 10 -3 6 -1
10 4 10 6 0 11 -4 11 -10z m-60 -25 c0 -16 -46 -65 -60 -65 -15 0 -13 4 23 43
37 42 37 42 37 22z"/>
<path d="M17963 18595 c-29 -31 -29 -34 4 -32 22 2 28 8 30 30 2 33 -5 33 -34
2z m27 -15 c0 -5 -4 -10 -10 -10 -5 0 -10 5 -10 10 0 6 5 10 10 10 6 0 10 -4
10 -10z"/>
<path d="M18230 18544 c-16 -9 -28 -10 -34 -4 -13 13 -36 13 -36 0 0 -5 6 -10
14 -10 8 0 18 -5 21 -11 8 -12 -24 -51 -36 -43 -5 3 -15 2 -21 -3 -7 -4 -22
-7 -33 -8 -15 0 -20 -7 -20 -30 0 -17 -6 -33 -14 -36 -9 -3 -10 -8 -5 -12 15
-9 76 43 70 60 -3 7 0 13 7 12 23 -3 32 1 58 24 14 12 24 27 22 33 -2 6 4 14
13 18 12 5 15 2 10 -10 -4 -11 1 -10 24 6 17 12 30 22 30 23 0 8 -50 1 -70 -9z
m-110 -99 c14 -16 10 -18 -14 -9 -9 3 -16 10 -16 15 0 14 16 11 30 -6z m-15
-25 c3 -5 1 -10 -4 -10 -6 0 -11 5 -11 10 0 6 2 10 4 10 3 0 8 -4 11 -10z"/>
<path d="M17720 18521 c0 -7 -5 -9 -12 -5 -6 4 -8 3 -4 -4 3 -6 2 -13 -4 -17
-5 -3 -10 -1 -10 6 0 13 -41 -11 -82 -48 -14 -14 -30 -25 -35 -24 -16 2 -93
-53 -93 -66 0 -7 5 -13 11 -13 5 0 8 4 4 9 -3 5 -1 12 4 15 5 4 8 -2 7 -11 -2
-10 -8 -18 -14 -17 -29 2 -33 5 -27 17 4 6 -1 3 -10 -8 -9 -11 -20 -19 -25
-18 -4 1 -16 -8 -26 -20 -14 -16 -15 -18 -2 -9 11 9 18 10 23 2 3 -5 1 -10 -5
-10 -6 0 -8 -5 -4 -12 5 -8 2 -9 -10 -5 -13 5 -15 3 -7 -12 6 -10 8 -21 5 -24
-4 -3 3 -5 13 -4 16 1 20 7 18 29 -1 15 5 37 15 48 16 19 36 28 27 13 -3 -5 6
-9 20 -9 22 -2 24 1 20 33 -6 42 9 50 94 47 33 0 62 3 66 9 3 6 1 7 -5 3 -7
-4 -12 -3 -12 3 0 5 -6 11 -12 14 -7 2 -3 2 10 0 21 -3 23 0 20 24 -3 25 0 28
27 28 24 0 29 4 27 20 -4 23 -12 34 -12 16z m-50 -60 c0 -6 -9 -9 -19 -8 -11
0 -17 5 -15 9 7 11 34 10 34 -1z m-56 -36 c-4 -8 -8 -15 -10 -15 -2 0 -4 7 -4
15 0 8 4 15 10 15 5 0 7 -7 4 -15z"/>
<path d="M18160 18509 c0 -5 5 -7 10 -4 6 3 10 8 10 11 0 2 -4 4 -10 4 -5 0
-10 -5 -10 -11z"/>
<path d="M17825 18490 c-3 -5 -1 -10 4 -10 6 0 11 5 11 10 0 6 -2 10 -4 10 -3
0 -8 -4 -11 -10z"/>
<path d="M10480 18437 c0 -3 12 -12 26 -22 15 -9 23 -12 20 -6 -7 11 -46 35
-46 28z"/>
<path d="M10450 18410 c-9 -6 -10 -10 -3 -10 6 0 15 5 18 10 8 12 4 12 -15 0z"/>
<path d="M18025 18389 c6 -8 4 -11 -6 -7 -11 4 -15 -1 -14 -21 1 -14 -3 -33
-9 -41 -6 -8 2 -4 16 9 17 15 24 29 20 40 -5 14 -4 14 11 2 11 -8 17 -9 17 -3
0 6 -10 16 -21 23 -17 9 -20 8 -14 -2z"/>
<path d="M10522 18360 c0 -14 2 -19 5 -12 2 6 2 18 0 25 -3 6 -5 1 -5 -13z"/>
<path d="M10440 18313 c5 -2 8 -9 5 -13 -3 -5 3 -13 13 -19 14 -7 19 -6 19 4
0 7 -7 11 -14 8 -8 -3 -13 0 -11 7 2 7 -3 14 -10 16 -7 1 -8 0 -2 -3z"/>
<path d="M10500 18315 c0 -7 30 -13 34 -7 3 4 -4 9 -15 9 -10 1 -19 0 -19 -2z"/>
<path d="M17922 18282 c-2 -20 1 -31 7 -27 6 3 7 13 4 22 -5 12 -2 15 9 11 19
-8 43 7 34 21 -4 6 -17 10 -30 9 -18 -2 -23 -9 -24 -36z"/>
<path d="M17360 18285 c0 -6 6 -17 13 -24 10 -11 8 -11 -11 -1 -13 6 -26 9
-30 6 -3 -3 0 -6 6 -6 7 0 9 -7 5 -17 -5 -13 -2 -15 11 -10 10 4 22 7 27 7 5
0 9 4 9 8 0 12 -29 48 -30 37z"/>
<path d="M17287 18225 c-15 -14 -27 -30 -27 -36 0 -6 -4 -8 -9 -5 -5 3 -14 -1
-21 -9 -18 -22 8 -20 32 2 18 16 18 16 12 0 -5 -13 -1 -17 17 -17 19 0 21 2 9
10 -13 8 -12 10 4 10 11 0 27 7 37 16 17 15 16 17 -2 35 -10 10 -20 19 -22 19
-1 0 -15 -11 -30 -25z m36 -22 c-3 -7 -9 -13 -13 -13 -16 0 -22 21 -9 36 14
17 31 0 22 -23z"/>
<path d="M17847 18233 c-10 -9 -9 -53 1 -53 5 0 21 14 37 30 16 17 23 30 16
30 -7 0 -21 -10 -31 -22 l-19 -23 6 23 c5 22 2 28 -10 15z"/>
<path d="M17344 18189 c-3 -6 -2 -15 3 -20 5 -5 9 -1 10 11 2 22 -2 25 -13 9z"/>
<path d="M17770 18149 c0 -6 8 -8 18 -5 12 4 11 1 -5 -13 -13 -11 -23 -25 -23
-32 0 -7 14 0 30 16 37 35 38 45 5 45 -14 0 -25 -5 -25 -11z"/>
<path d="M17162 18117 c-29 -31 -28 -38 5 -34 20 3 27 10 30 30 5 33 -7 34
-35 4z m28 5 c0 -4 -10 -13 -22 -21 -23 -14 -23 -14 -4 8 20 22 26 25 26 13z"/>
<path d="M17680 18060 c1 -35 16 -41 40 -15 20 22 21 25 6 19 -13 -5 -17 -4
-12 4 4 7 -1 10 -14 9 -11 -1 -20 -8 -20 -17z"/>
<path d="M17060 18016 c-85 -83 -95 -98 -60 -89 11 3 18 9 15 13 -3 5 -1 11 4
14 5 4 11 -2 14 -11 2 -10 3 -3 2 15 -3 37 7 46 52 45 34 0 44 11 19 20 -7 3
-20 0 -27 -6 -11 -10 -11 -9 0 5 7 9 19 14 27 11 8 -3 14 1 14 11 0 25 -12 19
-60 -28z"/>
<path d="M17676 18003 c-4 -5 -22 -8 -39 -8 -30 0 -32 -2 -32 -40 -1 -39 -1
-40 -40 -40 -37 0 -39 -2 -41 -33 -1 -18 3 -35 8 -38 15 -10 50 28 44 49 -3
13 0 17 9 13 8 -3 33 17 60 50 26 30 45 54 42 54 -2 0 -7 -3 -11 -7z m-40 -22
c20 16 17 1 -4 -26 l-19 -23 0 31 c0 18 2 26 5 19 3 -10 7 -10 18 -1z m-82
-86 c6 -18 -2 -45 -15 -45 -13 0 -11 17 4 24 10 5 10 7 0 12 -15 7 -17 24 -4
24 5 0 11 -7 15 -15z"/>
<path d="M16928 17881 c-16 -14 -28 -30 -28 -34 0 -10 47 -4 57 8 4 4 3 5 -3
2 -7 -4 -15 0 -18 9 -3 8 -2 12 4 9 6 -3 13 1 16 10 10 26 1 24 -28 -4z"/>
<path d="M9926 17854 c-19 -18 -21 -65 -4 -82 18 -18 63 -15 80 6 46 52 -27
125 -76 76z"/>
<path d="M17444 17769 l1 -68 22 27 c12 15 22 32 23 38 0 6 11 21 25 34 30 28
19 40 -36 38 l-35 -1 0 -68z m76 52 c0 -5 -9 -11 -20 -14 -12 -3 -20 -14 -20
-27 0 -12 -8 -29 -17 -38 -16 -16 -16 -16 -9 3 4 11 10 32 13 47 5 24 15 32
46 37 4 0 7 -3 7 -8z"/>
<path d="M16855 17798 c-11 -13 -19 -26 -18 -29 1 -3 -8 -12 -20 -18 -32 -18
-58 -57 -63 -94 -2 -18 0 -27 4 -20 4 7 13 9 21 4 10 -7 9 -9 -3 -14 -9 -4
-16 -12 -15 -19 0 -10 2 -10 6 0 2 6 9 10 13 7 5 -3 6 -13 3 -21 -12 -31 109
-124 163 -124 12 0 26 -4 29 -10 10 -16 47 -12 60 7 8 10 17 13 25 8 11 -7 9
-10 -6 -17 -15 -7 -14 -7 6 -3 14 2 41 5 60 5 28 0 32 3 20 11 -12 9 -10 10 8
6 25 -6 108 19 118 34 3 5 -11 8 -30 7 -22 -2 -36 -8 -36 -17 0 -8 -6 -11 -16
-7 -9 3 -19 6 -22 6 -4 0 -1 4 6 8 6 5 -40 9 -104 9 -91 1 -116 -2 -121 -13
-3 -8 -11 -14 -19 -14 -8 0 -11 6 -7 16 5 14 1 16 -21 12 -27 -5 -27 -5 -20
38 6 40 4 44 -14 44 -11 0 -32 -4 -46 -10 -25 -9 -26 -8 -20 25 4 28 2 35 -11
35 -11 0 -15 5 -11 16 4 10 2 13 -7 8 -7 -4 -8 -3 -4 2 5 5 32 9 60 9 l52 0 0
67 c0 38 0 68 0 68 0 0 -9 -10 -20 -22z m7 -47 c-7 -36 -21 -51 -48 -51 -32 0
-30 14 4 34 l27 17 -24 -20 c-16 -15 -19 -21 -8 -21 21 0 40 27 35 48 -3 11 0
19 7 19 7 0 10 -10 7 -26z m8 -51 c0 -5 -5 -10 -11 -10 -5 0 -7 5 -4 10 3 6 8
10 11 10 2 0 4 -4 4 -10z m0 -120 c0 -5 -4 -10 -10 -10 -5 0 -10 5 -10 10 0 6
5 10 10 10 6 0 10 -4 10 -10z m-30 -25 c19 -22 8 -25 -12 -3 -10 10 -14 18 -9
18 5 0 14 -7 21 -15z m273 -62 c-7 -2 -19 -2 -25 0 -7 3 -2 5 12 5 14 0 19 -2
13 -5z"/>
<path d="M24696 17805 c-11 -8 -15 -15 -9 -15 6 0 16 7 23 15 16 19 11 19 -14
0z"/>
<path d="M24624 17784 c-18 -14 -18 -15 4 -4 12 6 22 13 22 15 0 8 -5 6 -26
-11z"/>
<path d="M16785 17670 c-3 -5 -1 -10 4 -10 6 0 11 5 11 10 0 6 -2 10 -4 10 -3
0 -8 -4 -11 -10z"/>
<path d="M17366 17638 c4 -40 4 -40 -51 -42 -28 -1 -30 -3 -30 -43 l-1 -42 28
17 c28 16 37 32 18 32 -5 0 -10 4 -10 10 0 5 6 7 14 4 9 -4 27 12 50 43 38 51
50 84 15 39 -12 -15 -24 -25 -27 -22 -3 3 3 15 12 25 17 19 17 20 -1 18 -17
-1 -19 -7 -17 -39z m-63 -68 c-3 -12 0 -20 6 -20 7 0 9 -5 5 -11 -9 -16 -28
17 -20 37 8 21 15 17 9 -6z"/>
<path d="M24100 17620 c-9 -6 -10 -10 -3 -10 6 0 15 5 18 10 8 12 4 12 -15 0z"/>
<path d="M24167 17609 c7 -7 15 -10 18 -7 3 3 -2 9 -12 12 -14 6 -15 5 -6 -5z"/>
<path d="M24486 17587 c3 -10 9 -15 12 -12 3 3 0 11 -7 18 -10 9 -11 8 -5 -6z"/>
<path d="M24510 17596 c0 -2 7 -7 16 -10 8 -3 12 -2 9 4 -6 10 -25 14 -25 6z"/>
<path d="M23955 17554 c-43 -22 -47 -29 -18 -31 18 -1 22 2 12 7 -11 7 -10 10
4 16 11 4 26 -1 40 -12 22 -19 22 -19 4 2 -9 11 -14 24 -10 27 10 11 0 8 -32
-9z"/>
<path d="M24028 17563 c7 -3 16 -2 19 1 4 3 -2 6 -13 5 -11 0 -14 -3 -6 -6z"/>
<path d="M24020 17490 c-13 -8 -12 -10 3 -10 9 0 17 5 17 10 0 12 -1 12 -20 0z"/>
<path d="M24087 17469 c7 -7 15 -10 18 -7 3 3 -2 9 -12 12 -14 6 -15 5 -6 -5z"/>
<path d="M24010 17460 c0 -5 5 -10 10 -10 6 0 10 5 10 10 0 6 -4 10 -10 10 -5
0 -10 -4 -10 -10z"/>
<path d="M23851 17423 c-2 -20 15 -23 35 -7 18 14 18 15 -3 5 -16 -8 -23 -8
-26 2 -4 9 -6 9 -6 0z"/>
<path d="M23906 17412 c-3 -5 1 -9 9 -9 8 0 12 4 9 9 -3 4 -7 8 -9 8 -2 0 -6
-4 -9 -8z"/>
<path d="M24415 17275 c-22 -7 -114 -36 -204 -65 -174 -55 -401 -143 -594
-231 l-118 -54 -60 -105 c-33 -58 -67 -116 -75 -130 -79 -133 -337 -686 -369
-788 -6 -22 -3 -21 52 14 321 207 721 423 990 535 l82 34 22 60 c42 117 97
251 149 365 91 200 117 253 154 318 37 65 35 68 -29 47z"/>
<path d="M9225 16518 c-5 -7 -5 -10 0 -6 4 4 13 4 19 -2 7 -5 17 -5 26 2 13 8
12 9 -1 5 -9 -3 -21 -1 -27 5 -6 6 -12 5 -17 -4z"/>
<path d="M9326 16503 c-6 -14 -5 -15 5 -6 7 7 10 15 7 18 -3 3 -9 -2 -12 -12z"/>
<path d="M9203 16495 c0 -8 4 -12 9 -9 5 3 6 10 3 15 -9 13 -12 11 -12 -6z"/>
<path d="M9175 16380 c3 -5 8 -10 11 -10 2 0 4 5 4 10 0 6 -5 10 -11 10 -5 0
-7 -4 -4 -10z"/>
<path d="M9250 16326 c0 -12 -5 -16 -15 -12 -8 3 -15 1 -15 -4 0 -6 7 -10 15
-10 17 0 32 27 21 37 -3 4 -6 -2 -6 -11z"/>
<path d="M26505 16299 c-869 -25 -1923 -244 -2765 -576 -290 -114 -681 -314
-907 -464 -52 -34 -52 -34 -74 -124 -26 -111 -69 -328 -65 -332 1 -2 79 35
172 81 539 268 1189 468 1854 570 414 63 658 81 1145 81 620 0 1007 -37 1595
-155 622 -125 1142 -295 1603 -526 59 -30 107 -50 107 -45 0 5 -12 67 -26 138
-51 254 -120 509 -206 757 -60 173 -43 157 -253 245 -259 109 -522 189 -822
250 l-141 28 -68 -34 c-38 -18 -100 -39 -138 -45 -130 -22 -328 24 -491 112
-67 36 -75 38 -180 41 -60 2 -213 1 -340 -2z m292 -168 c198 -101 199 -377 1
-475 -129 -64 -289 -12 -352 116 -36 71 -36 168 -2 236 36 69 102 126 169 143
50 13 139 3 184 -20z m-1299 -161 c51 -31 74 -76 69 -136 -6 -87 -67 -144
-154 -144 -143 0 -198 201 -77 281 39 26 119 25 162 -1z m2799 -75 c107 -32
185 -137 186 -250 1 -153 -110 -265 -263 -265 -153 0 -262 107 -263 260 -2
114 68 214 175 251 65 23 100 23 165 4z m-4004 -161 c136 -65 89 -274 -62
-274 -151 0 -201 203 -66 270 48 24 83 25 128 4z m-944 -379 c32 -16 41 -33
41 -76 0 -42 -14 -64 -49 -79 -93 -38 -167 80 -90 144 35 30 58 32 98 11z"/>
<path d="M23980 16180 c-9 -6 -10 -10 -3 -10 6 0 15 5 18 10 8 12 4 12 -15 0z"/>
<path d="M23845 16130 c-4 -6 -11 -8 -16 -5 -5 4 -9 2 -9 -4 0 -5 -8 -11 -17
-13 -10 -2 -13 -6 -8 -10 6 -3 26 5 45 18 19 13 29 24 23 24 -7 0 -15 -5 -18
-10z"/>
<path d="M23665 16061 c-3 -5 -2 -12 3 -15 5 -3 9 1 9 9 0 17 -3 19 -12 6z"/>
<path d="M23709 16043 c-13 -16 -12 -17 4 -4 16 13 21 21 13 21 -2 0 -10 -8
-17 -17z"/>
<path d="M2550 15993 c-97 -127 -238 -279 -345 -373 -100 -88 -296 -195 -405
-221 -204 -49 -424 41 -534 218 -42 68 -76 185 -84 286 l-7 91 -68 -187 c-150
-417 -251 -823 -301 -1214 -13 -98 -13 -120 1 -177 18 -81 65 -153 118 -183
52 -29 153 -31 223 -5 155 59 280 183 675 665 48 59 94 107 102 107 24 0 34
-36 81 -291 50 -273 80 -378 134 -470 45 -76 96 -125 165 -160 43 -21 64 -24
155 -24 93 0 112 3 162 27 144 67 285 195 496 448 150 180 243 273 268 268 37
-7 84 -114 173 -393 50 -157 106 -273 130 -267 7 1 10 -2 7 -7 -13 -20 87
-105 136 -115 7 -2 27 -9 43 -16 17 -8 66 -14 115 -14 74 -1 92 3 139 27 29
16 77 52 106 81 86 85 123 147 304 517 91 185 115 221 148 217 23 -2 46 -30
139 -168 147 -217 194 -277 283 -362 100 -96 179 -133 281 -133 89 1 135 21
199 87 45 47 107 159 140 253 22 62 63 218 102 385 12 52 26 101 31 108 24 29
57 11 174 -94 315 -282 556 -437 775 -500 77 -22 105 -26 187 -22 84 3 106 8
162 35 67 32 117 74 164 136 l27 35 -21 129 c-60 377 -147 712 -282 1088 -28
77 -54 143 -58 148 -3 4 -12 -15 -18 -43 -43 -186 -197 -385 -359 -464 -302
-149 -591 -92 -919 179 -72 59 -253 243 -279 282 -1 2 -11 -44 -22 -100 -55
-282 -223 -480 -468 -553 -93 -28 -238 -24 -341 10 -127 41 -245 124 -323 228
-67 90 -105 160 -142 266 l-32 93 -35 -78 c-19 -43 -35 -83 -36 -89 -1 -7 -6
-18 -12 -25 -6 -8 -28 -48 -49 -89 -105 -206 -229 -348 -375 -433 -30 -17 -59
-32 -65 -33 -5 -1 -39 -9 -75 -18 -201 -49 -449 15 -583 151 -31 32 -63 67
-71 78 -55 82 -103 202 -129 325 -19 88 -47 305 -47 367 0 24 -3 43 -8 43 -4
0 -27 -26 -52 -57z m4413 -976 c224 -132 151 -467 -107 -494 -186 -19 -330
164 -274 349 16 54 82 126 143 155 69 33 172 29 238 -10z m-5755 -143 c146
-60 177 -253 57 -351 -121 -100 -296 -43 -336 110 -43 158 127 305 279 241z
m4247 -38 c157 -72 194 -281 73 -405 -52 -53 -104 -75 -178 -74 -75 0 -121 17
-174 63 -133 117 -104 335 56 414 69 35 152 35 223 2z m-2831 -60 c47 -20 104
-73 128 -120 45 -89 19 -218 -57 -285 -53 -46 -93 -61 -165 -61 -251 0 -334
339 -111 455 54 28 151 34 205 11z m1503 -97 c76 -45 113 -103 120 -190 5 -49
2 -67 -21 -113 -45 -92 -117 -136 -220 -136 -57 0 -101 18 -148 59 -133 116
-89 334 79 397 53 20 143 12 190 -17z"/>
<path d="M23625 16040 c-3 -6 1 -7 9 -4 18 7 21 14 7 14 -6 0 -13 -4 -16 -10z"/>
<path d="M23460 15966 c0 -2 8 -10 18 -17 15 -13 16 -12 3 4 -13 16 -21 21
-21 13z"/>
<path d="M23840 15960 c-8 -5 -10 -10 -5 -10 6 0 17 5 25 10 8 5 11 10 5 10
-5 0 -17 -5 -25 -10z"/>
<path d="M23436 15951 c-4 -5 -2 -12 3 -15 5 -4 12 -2 15 3 4 5 2 12 -3 15 -5
4 -12 2 -15 -3z"/>
<path d="M23345 15911 c-3 -5 -2 -12 3 -15 5 -3 9 1 9 9 0 17 -3 19 -12 6z"/>
<path d="M23628 15903 c7 -3 16 -2 19 1 4 3 -2 6 -13 5 -11 0 -14 -3 -6 -6z"/>
<path d="M23655 15890 c-3 -6 1 -7 9 -4 18 7 21 14 7 14 -6 0 -13 -4 -16 -10z"/>
<path d="M23335 15860 c-3 -6 1 -7 9 -4 18 7 21 14 7 14 -6 0 -13 -4 -16 -10z"/>
<path d="M23441 15811 c-7 -5 -9 -11 -5 -14 5 -3 15 1 22 9 14 16 5 18 -17 5z"/>
<path d="M14256 15748 c-78 -80 -140 -198 -192 -367 -20 -64 -40 -120 -45
-125 -4 -5 -11 4 -14 20 -30 153 -95 275 -194 367 -102 94 -211 130 -325 107
-87 -17 -149 -52 -225 -129 -76 -75 -136 -183 -164 -291 -9 -36 -22 -85 -28
-110 l-12 -45 -21 85 c-40 154 -121 299 -211 372 -99 83 -243 109 -374 69 -72
-22 -168 -81 -163 -101 1 -6 -2 -9 -6 -6 -12 7 -44 -28 -35 -39 5 -4 3 -5 -4
-1 -27 15 -127 -154 -179 -301 -10 -29 -22 -53 -25 -53 -4 0 -10 21 -14 48
-34 232 -199 426 -396 468 -238 50 -461 -110 -584 -421 -35 -90 -55 -117 -55
-77 0 40 -33 142 -73 222 -96 194 -276 310 -437 280 -182 -33 -379 -217 -446
-414 -9 -25 -19 -48 -24 -51 -4 -2 -14 31 -23 75 -63 315 -349 470 -659 357
-151 -54 -269 -169 -352 -340 l-53 -109 -6 49 c-31 258 -235 485 -452 502
l-74 6 -35 -100 c-62 -176 -131 -421 -180 -635 l-5 -26 63 4 c190 12 402 -144
478 -351 11 -32 26 -56 31 -54 6 2 17 21 24 43 88 253 320 410 578 390 301
-25 516 -230 553 -531 5 -45 11 -61 24 -63 12 -2 22 6 29 25 60 149 151 279
241 347 136 101 277 142 404 116 156 -32 267 -155 309 -345 23 -101 30 -120
43 -118 7 2 12 -2 12 -7 0 -28 19 -2 52 68 172 368 541 485 788 251 25 -24 48
-42 53 -41 4 1 6 -1 5 -5 -1 -5 14 -37 34 -73 20 -36 47 -95 59 -132 12 -38
28 -69 35 -69 8 -1 19 -2 25 -3 6 -1 23 31 38 70 74 189 230 336 414 389 42
12 86 16 155 13 84 -3 106 -7 164 -35 126 -59 219 -192 253 -358 9 -44 21 -84
26 -90 15 -15 39 22 39 60 0 17 7 56 16 86 68 230 268 381 485 366 168 -11
296 -112 365 -287 40 -102 67 -102 89 0 16 78 87 193 169 276 95 94 169 136
257 142 l57 4 -43 167 c-45 174 -150 499 -165 515 -6 6 -35 -17 -74 -56z"/>
<path d="M23370 15786 c4 -4 16 -4 26 2 16 9 14 10 -8 9 -15 -1 -23 -6 -18
-11z"/>
<path d="M23304 15734 c-18 -14 -18 -15 4 -4 12 6 22 13 22 15 0 8 -5 6 -26
-11z"/>
<path d="M23205 15731 c-9 -15 15 -25 28 -12 9 9 7 10 -7 5 -13 -5 -17 -4 -12
4 4 7 5 12 2 12 -3 0 -7 -4 -11 -9z"/>
<path d="M23250 15736 c0 -2 7 -7 16 -10 8 -3 12 -2 9 4 -6 10 -25 14 -25 6z"/>
<path d="M23016 15707 c-16 -12 -16 -13 2 -13 10 0 19 6 19 13 0 7 -1 13 -2
13 -1 0 -9 -6 -19 -13z"/>
<path d="M23091 15690 c-13 -11 -19 -20 -14 -20 6 0 18 9 28 20 23 25 17 25
-14 0z"/>
<path d="M22916 15653 c-6 -14 -5 -15 5 -6 7 7 10 15 7 18 -3 3 -9 -2 -12 -12z"/>
<path d="M23070 15640 c-9 -6 -10 -10 -3 -10 6 0 15 5 18 10 8 12 4 12 -15 0z"/>
<path d="M22926 15632 c-3 -5 1 -9 9 -9 8 0 12 4 9 9 -3 4 -7 8 -9 8 -2 0 -6
-4 -9 -8z"/>
<path d="M22893 15595 c0 -8 4 -15 9 -15 4 0 8 4 8 9 0 6 -4 12 -8 15 -5 3 -9
-1 -9 -9z"/>
<path d="M22983 15575 c0 -8 4 -12 9 -9 5 3 6 10 3 15 -9 13 -12 11 -12 -6z"/>
<path d="M22940 15550 c-12 -16 -19 -30 -16 -30 2 0 14 14 26 30 12 17 19 30
16 30 -2 0 -14 -13 -26 -30z"/>
<path d="M22890 15559 c0 -5 5 -7 10 -4 6 3 10 8 10 11 0 2 -4 4 -10 4 -5 0
-10 -5 -10 -11z"/>
<path d="M16425 14940 c-11 -5 -33 -12 -50 -15 l-30 -7 29 -12 28 -11 -40 0
c-23 0 -35 3 -29 7 18 11 -3 8 -43 -7 -35 -12 -34 -13 33 -12 37 0 70 -2 72
-5 2 -2 5 -91 6 -197 2 -203 -2 -218 -43 -205 -10 3 -18 1 -18 -5 0 -6 6 -11
14 -11 8 0 17 -4 20 -9 10 -15 -38 1 -50 17 -8 10 -17 13 -30 7 -10 -4 -22 -7
-26 -7 -15 4 -8 -7 12 -18 15 -8 20 -8 18 1 -2 6 3 14 10 16 8 3 10 -1 6 -11
-6 -16 37 -66 57 -66 5 0 8 -4 7 -8 -2 -4 11 -24 28 -45 l30 -37 1 35 c1 20
-4 35 -10 35 -8 0 -8 3 -2 8 6 4 10 53 10 109 0 56 -3 95 -6 86 -4 -11 -8 -3
-12 22 -9 56 -8 97 3 115 6 10 7 -3 3 -40 -3 -30 -2 -52 2 -47 9 8 17 105 17
200 0 35 5 57 12 58 6 1 0 5 -14 9 -22 7 -23 8 -4 9 16 1 22 7 22 26 0 27 -3
28 -33 15z m20 -20 c3 -5 1 -10 -4 -10 -6 0 -11 5 -11 10 0 6 2 10 4 10 3 0 8
-4 11 -10z m-11 -74 c4 -21 1 -43 -9 -62 -15 -29 -15 -28 -15 34 0 67 14 83
24 28z m-37 -398 c-3 -8 -6 -5 -6 6 -1 11 2 17 5 13 3 -3 4 -12 1 -19z m-37
-23 c19 -22 8 -25 -12 -3 -10 10 -14 18 -9 18 5 0 14 -7 21 -15z m42 -41 c-14
-10 -13 -12 6 -18 12 -4 22 -12 22 -17 0 -6 -7 -6 -19 1 -25 13 -34 27 -22 35
6 3 7 13 4 22 -6 15 -5 16 9 3 14 -13 14 -16 0 -26z"/>
<path d="M16206 14865 c-15 -8 -33 -15 -40 -15 -6 0 -22 -6 -36 -13 -14 -7
-44 -19 -67 -26 -24 -8 -43 -18 -43 -23 0 -6 -6 -8 -12 -5 -7 2 -26 -3 -43
-11 -16 -9 -34 -17 -40 -18 -18 -4 -65 -23 -65 -27 0 -2 49 -3 110 -3 60 1
110 4 110 7 0 3 -6 13 -13 23 -12 16 -14 16 -26 2 -19 -22 -34 -20 -22 3 14
25 42 35 53 19 5 -9 8 -7 8 7 0 16 7 20 40 22 120 6 116 5 117 40 0 18 0 33
-1 33 0 0 -14 -7 -30 -15z m-31 -35 c-27 -12 -43 -12 -25 0 8 5 22 9 30 9 10
0 8 -3 -5 -9z m-191 -81 c-31 -12 -40 -9 -20 6 10 8 24 11 29 8 6 -4 2 -10 -9
-14z"/>
<path d="M23620 14840 c-9 -6 -10 -10 -3 -10 6 0 15 5 18 10 8 12 4 12 -15 0z"/>
<path d="M23730 14829 c0 -5 5 -7 10 -4 6 3 10 8 10 11 0 2 -4 4 -10 4 -5 0
-10 -5 -10 -11z"/>
<path d="M23426 14758 c3 -5 10 -6 15 -3 13 9 11 12 -6 12 -8 0 -12 -4 -9 -9z"/>
<path d="M23465 14760 c-3 -6 1 -7 9 -4 18 7 21 14 7 14 -6 0 -13 -4 -16 -10z"/>
<path d="M15825 14710 c-3 -5 -23 -14 -45 -20 -21 -6 -46 -17 -53 -25 -8 -8
-18 -11 -22 -7 -5 4 -5 1 -1 -5 4 -7 19 -13 34 -12 15 0 21 3 15 6 -19 7 -15
19 6 19 11 0 17 -4 15 -8 -3 -4 2 -8 11 -8 11 0 15 5 12 14 -3 8 1 17 9 20 24
9 27 7 14 -9 -10 -12 -10 -15 3 -15 11 0 15 9 15 30 -1 32 -3 36 -13 20z"/>
<path d="M23262 14691 c-11 -7 -11 -9 0 -14 9 -3 15 1 15 9 0 8 -1 14 -1 14
-1 0 -7 -4 -14 -9z"/>
<path d="M23309 14683 c-13 -16 -12 -17 4 -4 16 13 21 21 13 21 -2 0 -10 -8
-17 -17z"/>
<path d="M23250 14656 c0 -2 7 -7 16 -10 8 -3 12 -2 9 4 -6 10 -25 14 -25 6z"/>
<path d="M15590 14601 c-52 -25 -107 -54 -121 -64 -14 -9 -29 -14 -34 -10 -4
5 -5 -1 -1 -12 5 -15 4 -17 -4 -9 -8 9 -18 9 -36 0 -13 -6 -24 -14 -24 -17 0
-11 84 -7 99 5 11 8 13 8 7 -1 -4 -8 -2 -13 6 -13 24 0 41 18 36 38 -9 33 7
45 56 44 25 -1 46 3 46 8 0 6 8 10 18 10 14 0 15 -2 2 -10 -13 -9 -13 -10 0
-10 8 0 21 4 29 9 11 7 10 11 -5 21 -18 11 -18 11 0 6 14 -5 17 -2 12 10 -4 9
-1 23 5 30 15 19 17 19 -91 -35z m30 -5 c0 -3 -4 -8 -10 -11 -5 -3 -10 -1 -10
4 0 6 5 11 10 11 6 0 10 -2 10 -4z m-119 -79 c-13 -13 -26 -3 -16 12 3 6 11 8
17 5 6 -4 6 -10 -1 -17z"/>
<path d="M15818 14643 c7 -3 16 -2 19 1 4 3 -2 6 -13 5 -11 0 -14 -3 -6 -6z"/>
<path d="M23526 14626 c6 -15 4 -17 -6 -11 -9 6 -11 4 -5 -4 5 -9 10 -10 18
-2 8 8 7 14 -2 24 -10 10 -11 8 -5 -7z"/>
<path d="M23555 14629 c4 -5 1 -18 -6 -27 -11 -13 -8 -12 9 2 26 23 26 22 6
30 -9 3 -12 2 -9 -5z"/>
<path d="M23060 14606 c0 -2 8 -10 18 -17 15 -13 16 -12 3 4 -13 16 -21 21
-21 13z"/>
<path d="M23470 14599 c0 -5 5 -7 10 -4 6 3 10 8 10 11 0 2 -4 4 -10 4 -5 0
-10 -5 -10 -11z"/>
<path d="M23043 14585 c0 -8 4 -12 9 -9 5 3 6 10 3 15 -9 13 -12 11 -12 -6z"/>
<path d="M23495 14580 c-3 -5 -1 -10 4 -10 6 0 11 5 11 10 0 6 -2 10 -4 10 -3
0 -8 -4 -11 -10z"/>
<path d="M23007 14569 c7 -7 15 -10 18 -7 3 3 -2 9 -12 12 -14 6 -15 5 -6 -5z"/>
<path d="M23605 14513 c-276 -98 -697 -291 -905 -414 l-75 -45 -3 -49 c-4 -53
17 -420 24 -440 3 -8 46 10 122 52 101 56 313 162 462 231 71 33 315 126 436
166 101 34 111 39 107 59 -2 12 -7 128 -11 258 l-7 235 -150 -53z"/>
<path d="M15787 14548 c2 -5 13 -6 22 -3 10 3 32 -2 50 -11 32 -16 81 -13 81
6 0 6 7 10 16 10 8 0 13 -4 9 -10 -3 -5 18 -8 54 -7 33 1 55 5 48 9 -8 5 -4 8
11 8 12 0 21 -5 20 -12 -2 -7 6 -13 17 -13 11 0 26 -4 34 -9 8 -5 30 -9 50 -8
22 0 29 -2 19 -6 -15 -6 -13 -9 8 -19 20 -9 23 -9 16 0 -4 7 -8 27 -7 45 2 37
-11 41 -43 11 -12 -11 -27 -17 -34 -13 -6 4 1 12 18 19 24 10 -9 12 -183 11
-116 0 -209 -4 -206 -8z m353 -2 c0 -2 -7 -7 -16 -10 -8 -3 -12 -2 -9 4 6 10
25 14 25 6z m87 -22 c-3 -3 -12 -4 -19 -1 -8 3 -5 6 6 6 11 1 17 -2 13 -5z"/>
<path d="M15766 14520 c4 -34 -1 -38 -47 -41 -30 -2 -35 -6 -36 -31 0 -15 3
-28 8 -28 5 0 8 6 7 13 -2 6 2 11 9 10 8 -2 10 4 6 15 -6 15 -5 15 10 3 11 -9
17 -10 17 -2 0 6 7 11 15 11 8 0 15 5 15 11 0 5 5 7 10 4 6 -3 10 0 10 9 0 8
-3 16 -7 19 -5 2 -2 2 5 0 7 -1 23 2 35 8 20 9 20 9 5 -4 -10 -8 -18 -18 -18
-23 0 -4 5 -3 12 4 7 7 21 12 32 12 20 0 20 0 -1 15 -12 8 -28 12 -36 9 -9 -3
-24 -1 -35 5 -17 9 -19 7 -16 -19z"/>
<path d="M22945 14541 c-3 -5 -2 -12 3 -15 5 -3 9 1 9 9 0 17 -3 19 -12 6z"/>
<path d="M23290 14536 c4 -4 16 -4 26 2 16 9 14 10 -8 9 -15 -1 -23 -6 -18
-11z"/>
<path d="M22905 14531 c-3 -5 0 -13 6 -17 7 -4 9 -3 5 4 -3 5 0 13 6 15 9 4
10 6 1 6 -6 1 -14 -3 -18 -8z"/>
<path d="M23325 14519 c-9 -13 15 -21 29 -10 7 6 16 8 19 4 4 -3 7 -2 7 4 0
12 -48 14 -55 2z"/>
<path d="M8090 14510 c0 -5 5 -10 11 -10 5 0 7 5 4 10 -3 6 -8 10 -11 10 -2 0
-4 -4 -4 -10z"/>
<path d="M22870 14510 c-9 -6 -10 -10 -3 -10 6 0 15 5 18 10 8 12 4 12 -15 0z"/>
<path d="M22773 14443 c0 -9 4 -10 14 -2 7 6 13 12 13 14 0 1 -6 2 -13 2 -8 0
-14 -6 -14 -14z"/>
<path d="M23160 14450 c-9 -6 -10 -10 -3 -10 6 0 15 5 18 10 8 12 4 12 -15 0z"/>
<path d="M8325 14440 c-3 -5 -1 -10 4 -10 6 0 11 5 11 10 0 6 -2 10 -4 10 -3
0 -8 -4 -11 -10z"/>
<path d="M8530 14429 c-12 -8 -10 -9 9 -4 17 5 22 4 16 -5 -5 -9 -4 -11 4 -6
6 4 9 12 6 17 -8 12 -16 11 -35 -2z"/>
<path d="M23155 14420 c-3 -6 1 -7 9 -4 18 7 21 14 7 14 -6 0 -13 -4 -16 -10z"/>
<path d="M8350 14409 c0 -5 5 -7 10 -4 6 3 10 8 10 11 0 2 -4 4 -10 4 -5 0
-10 -5 -10 -11z"/>
<path d="M15602 14364 c1 -19 2 -33 2 -31 1 1 13 16 28 32 l27 30 -29 1 c-27
1 -29 -2 -28 -32z m23 16 c3 -5 1 -10 -4 -10 -6 0 -11 5 -11 10 0 6 2 10 4 10
3 0 8 -4 11 -10z"/>
<path d="M22698 14393 c7 -3 16 -2 19 1 4 3 -2 6 -13 5 -11 0 -14 -3 -6 -6z"/>
<path d="M15353 14355 c0 -22 2 -30 4 -17 2 12 2 30 0 40 -3 9 -5 -1 -4 -23z"/>
<path d="M8221 14302 c-8 -14 -5 -18 12 -19 16 -2 18 0 8 6 -7 5 -10 14 -7 20
4 6 5 11 2 11 -3 0 -10 -8 -15 -18z"/>
<path d="M15523 14302 c0 -12 5 -22 9 -22 11 0 10 12 -2 30 -7 12 -9 10 -7 -8z"/>
<path d="M15547 14302 c1 -7 -5 -25 -15 -40 -9 -14 -11 -23 -4 -19 6 5 12 4
12 -2 0 -6 -4 -11 -10 -11 -5 0 -10 -12 -10 -27 1 -28 1 -28 15 6 8 18 13 37
10 41 -3 4 2 10 10 14 9 3 12 12 8 22 -4 12 -3 15 5 10 8 -5 10 -2 5 9 -4 12
-8 13 -13 5 -4 -7 -10 -8 -12 -4 -3 5 -3 3 -1 -4z"/>
<path d="M22890 14306 c0 -2 7 -7 16 -10 8 -3 12 -2 9 4 -6 10 -25 14 -25 6z"/>
<path d="M8056 14143 c-9 -235 24 -727 51 -754 15 -15 178 -91 332 -156 933
-390 2202 -552 3386 -433 496 50 1101 159 1510 271 512 141 920 313 1251 527
l72 46 6 60 c7 66 8 206 2 206 -2 0 -44 -15 -93 -34 -603 -230 -1343 -369
-2221 -417 -248 -13 -1133 -7 -1342 10 -1013 82 -1799 293 -2735 733 -104 49
-195 92 -201 94 -7 3 -13 -45 -18 -153z"/>
<path d="M8270 14255 c7 -8 17 -15 22 -15 6 0 5 7 -2 15 -7 8 -17 15 -22 15
-6 0 -5 -7 2 -15z"/>
<path d="M15342 14134 c0 -64 2 -113 6 -109 8 8 10 225 1 225 -3 0 -6 -52 -7
-116z"/>
<path d="M22784 14235 c-18 -14 -18 -14 4 -8 12 3 22 9 22 14 0 12 -3 11 -26
-6z"/>
<path d="M8335 14230 c-3 -6 1 -7 9 -4 18 7 21 14 7 14 -6 0 -13 -4 -16 -10z"/>
<path d="M8365 14220 c-3 -5 -1 -10 4 -10 6 0 11 5 11 10 0 6 -2 10 -4 10 -3
0 -8 -4 -11 -10z"/>
<path d="M8430 14220 c8 -5 20 -10 25 -10 6 0 3 5 -5 10 -8 5 -19 10 -25 10
-5 0 -3 -5 5 -10z"/>
<path d="M22716 14218 c3 -5 10 -6 15 -3 13 9 11 12 -6 12 -8 0 -12 -4 -9 -9z"/>
<path d="M8397 14203 c-3 -5 8 -8 25 -9 20 -1 25 2 16 7 -16 11 -35 11 -41 2z"/>
<path d="M8580 14150 c-8 -5 -17 -7 -21 -4 -4 2 -11 -1 -15 -8 -4 -7 -3 -10 1
-5 5 4 18 -1 29 -10 20 -17 20 -17 7 0 -15 19 -9 22 19 7 14 -8 18 -6 16 7 -3
21 -16 26 -36 13z"/>
<path d="M15443 14140 c-1 -11 4 -20 10 -20 8 0 7 -3 -2 -9 -11 -7 -12 -22 -8
-62 4 -29 11 -57 17 -63 5 -5 10 -19 9 -30 -1 -18 -2 -17 -8 4 -7 22 -9 19
-16 -24 -7 -44 -5 -50 18 -72 14 -13 31 -24 37 -24 6 0 18 -6 26 -14 16 -16
19 -30 5 -22 -5 3 -8 -5 -7 -18 0 -13 4 -22 9 -19 4 2 7 -1 7 -6 0 -6 -4 -11
-10 -11 -5 0 -10 -15 -10 -33 0 -26 4 -33 20 -34 11 -1 18 2 15 8 -4 5 -1 9 4
9 6 0 11 -4 11 -10 0 -5 7 -10 16 -10 10 0 14 5 10 16 -3 9 -2 12 5 8 6 -3 8
-18 4 -33 -6 -25 -6 -26 10 -6 16 19 16 19 11 1 -8 -22 29 -67 48 -60 8 3 11
-5 10 -25 -2 -32 15 -53 46 -58 30 -4 34 16 8 37 -13 11 -18 19 -11 20 18 0
45 -31 39 -46 -3 -8 -1 -14 3 -14 5 0 11 5 13 12 3 7 9 8 18 3 7 -4 36 -9 64
-11 l51 -2 -54 19 c-29 10 -58 16 -64 12 -6 -3 -7 -1 -3 5 4 7 -3 14 -18 18
-14 3 -31 12 -37 20 -10 13 -14 12 -30 -2 -11 -10 -19 -12 -19 -6 0 6 4 13 9
16 5 4 -17 32 -49 64 -32 32 -70 83 -85 113 -15 29 -30 56 -34 59 -3 3 -7 16
-9 30 -1 14 -7 26 -12 28 -5 2 -7 16 -4 31 4 18 1 32 -7 36 -9 6 -11 2 -7 -13
4 -12 1 -25 -4 -28 -7 -5 -8 7 -4 32 6 37 9 61 19 146 3 20 8 41 11 47 4 6 3
11 -3 11 -5 0 -15 -8 -20 -17 -10 -17 -10 -17 -11 0 0 24 -35 22 -37 -3z m20
-69 c2 -10 1 -25 -4 -32 -6 -10 -9 -4 -9 19 0 36 5 42 13 13z m57 -217 c0 -2
-4 -4 -10 -4 -15 0 -60 49 -60 66 0 10 13 1 35 -22 19 -20 35 -38 35 -40z m34
-70 c3 -8 2 -12 -4 -9 -6 3 -10 10 -10 16 0 14 7 11 14 -7z m120 -163 c-2 -3
-12 3 -22 13 -16 17 -16 18 5 5 12 -7 20 -15 17 -18z"/>
<path d="M8842 14054 c10 -3 15 -11 11 -20 -3 -9 1 -14 13 -14 14 0 16 2 6 9
-8 4 -13 12 -12 17 0 5 -7 10 -17 11 -15 2 -16 1 -1 -3z"/>
<path d="M15351 13994 c0 -11 3 -14 6 -6 3 7 2 16 -1 19 -3 4 -6 -2 -5 -13z"/>
<path d="M15341 13855 c-1 -58 2 -105 7 -105 5 0 9 47 9 105 0 58 -4 105 -7
105 -4 0 -8 -47 -9 -105z"/>
<path d="M23730 13876 c0 -2 7 -7 16 -10 8 -3 12 -2 9 4 -6 10 -25 14 -25 6z"/>
<path d="M15440 13850 c0 -5 5 -10 11 -10 5 0 7 5 4 10 -3 6 -8 10 -11 10 -2
0 -4 -4 -4 -10z"/>
<path d="M16467 13814 c-3 -3 -3 -13 0 -22 5 -11 3 -13 -8 -7 -11 7 -12 6 -2
-7 7 -8 10 -18 6 -21 -3 -4 -1 -7 5 -7 6 0 9 -7 5 -17 -4 -10 -2 -14 4 -10 6
4 10 25 10 47 0 39 -8 56 -20 44z"/>
<path d="M16428 13743 c-18 -30 -118 -136 -134 -142 -5 -2 -27 -12 -49 -23
-22 -12 -62 -29 -90 -38 l-50 -17 51 -1 c74 0 114 -10 107 -28 -4 -10 3 -14
23 -15 28 -2 28 -2 4 -6 -14 -3 -32 -11 -40 -19 -9 -7 -31 -14 -49 -16 -18 -1
-35 -6 -38 -11 -2 -4 -10 -4 -17 2 -6 5 -41 9 -76 8 -59 -2 -65 -4 -68 -24 -2
-13 1 -23 7 -23 6 0 11 -5 11 -11 0 -5 -4 -8 -9 -5 -5 4 -11 1 -13 -4 -2 -7
-49 -12 -118 -13 l-115 -2 -3 -42 c-1 -24 -1 -43 0 -43 11 0 120 50 110 50 -8
0 -10 5 -6 12 5 8 2 9 -9 5 -10 -3 -17 -2 -17 3 0 15 17 12 45 -6 17 -11 29
-13 38 -7 6 6 33 16 60 23 26 7 47 17 47 23 0 6 3 8 6 4 4 -3 23 0 43 8 20 7
96 32 169 55 72 23 132 46 132 51 0 6 4 7 10 4 14 -8 81 5 75 15 -3 5 -34 8
-69 8 -35 0 -72 5 -82 11 -11 6 -13 11 -6 11 7 0 12 6 11 13 -5 37 2 46 39 49
32 3 37 7 39 28 0 14 1 30 2 35 1 6 15 16 31 22 17 6 28 8 25 3 -3 -4 4 -10
16 -13 21 -6 35 13 26 35 -3 7 -6 2 -6 -12 -1 -22 -3 -21 -21 13 -11 21 -18
42 -15 47 4 6 2 10 -2 10 -5 0 -16 -12 -25 -27z m22 -23 c0 -5 -4 -10 -10 -10
-5 0 -10 5 -10 10 0 6 5 10 10 10 6 0 10 -4 10 -10z m-25 -20 c3 -5 1 -10 -4
-10 -6 0 -11 5 -11 10 0 6 2 10 4 10 3 0 8 -4 11 -10z m-70 -70 c-10 -11 -23
-20 -28 -20 -13 0 24 39 37 39 5 1 1 -8 -9 -19z m30 -9 c-3 -6 -11 -11 -17
-11 -6 0 -6 6 2 15 14 17 26 13 15 -4z m-89 -46 c-10 -7 -15 -18 -11 -24 3 -6
1 -11 -4 -11 -18 0 -13 28 7 39 25 15 30 13 8 -4z m-66 -35 c8 -5 11 -10 5
-10 -5 0 -17 5 -25 10 -8 5 -10 10 -5 10 6 0 17 -5 25 -10z m90 -34 c0 -3 -4
-8 -10 -11 -5 -3 -10 -1 -10 4 0 6 5 11 10 11 6 0 10 -2 10 -4z m45 -6 c-3 -5
-12 -7 -20 -3 -21 7 -19 13 6 13 11 0 18 -4 14 -10z m62 4 c-3 -3 -12 -4 -19
-1 -8 3 -5 6 6 6 11 1 17 -2 13 -5z m-332 -94 c-3 -5 -12 -10 -18 -10 -7 0 -6
4 3 10 19 12 23 12 15 0z m-38 -6 c-3 -3 -12 -4 -19 -1 -8 3 -5 6 6 6 11 1 17
-2 13 -5z m-127 -58 c0 -11 -19 -15 -25 -6 -3 5 1 10 9 10 9 0 16 -2 16 -4z
m-100 -21 c10 -12 9 -15 -4 -15 -10 0 -15 4 -12 9 4 5 0 12 -6 14 -8 4 -9 6
-2 6 6 1 17 -6 24 -14z m-35 -25 c-3 -5 -10 -10 -16 -10 -5 0 -9 5 -9 10 0 6
7 10 16 10 8 0 12 -4 9 -10z"/>
<path d="M23338 13728 c10 -13 10 -17 0 -21 -9 -4 -9 -6 -1 -6 20 -2 24 16 5
30 -15 13 -16 12 -4 -3z"/>
<path d="M15351 13684 c0 -11 3 -14 6 -6 3 7 2 16 -1 19 -3 4 -6 -2 -5 -13z"/>
<path d="M23265 13690 c-3 -6 1 -7 9 -4 18 7 21 14 7 14 -6 0 -13 -4 -16 -10z"/>
<path d="M23111 13650 c-31 -26 -17 -26 16 0 14 11 22 20 17 20 -5 -1 -20 -10
-33 -20z"/>
<path d="M16485 13638 c-2 -13 -3 -46 -2 -73 2 -49 3 -51 29 -47 24 4 27 8 22
31 -10 42 -28 52 -20 11 5 -25 3 -31 -5 -23 -6 6 -11 36 -11 67 -1 60 -5 70
-13 34z"/>
<path d="M15603 13622 c0 -10 9 -19 20 -19 18 -2 18 -1 2 18 -22 23 -24 24
-22 1z"/>
<path d="M23175 13620 c-3 -5 -1 -10 4 -10 6 0 11 5 11 10 0 6 -2 10 -4 10 -3
0 -8 -4 -11 -10z"/>
<path d="M23796 13603 c-6 -14 -5 -15 5 -6 7 7 10 15 7 18 -3 3 -9 -2 -12 -12z"/>
<path d="M22920 13580 c-8 -5 -10 -10 -5 -10 6 0 17 5 25 10 8 5 11 10 5 10
-5 0 -17 -5 -25 -10z"/>
<path d="M25045 13549 c-810 -48 -1553 -225 -2132 -508 -79 -39 -143 -74 -143
-79 0 -16 67 -207 105 -297 94 -228 278 -538 419 -707 l55 -66 83 35 c419 177
1009 300 1598 333 1000 55 2172 -135 3118 -506 90 -35 168 -64 173 -64 9 0 90
83 166 169 114 130 237 302 333 464 48 82 160 309 160 325 0 26 -572 307 -851
418 -202 80 -552 194 -759 248 -736 192 -1591 278 -2325 235z m-126 -524 c112
-56 167 -189 131 -313 -15 -55 -79 -130 -134 -157 -58 -29 -164 -34 -220 -11
-47 20 -113 82 -139 130 -34 64 -31 175 6 241 72 130 225 177 356 110z m1538
1 c91 -45 143 -130 142 -231 0 -157 -107 -265 -261 -265 -81 0 -121 15 -178
66 -64 58 -85 105 -85 194 0 59 5 84 23 118 72 136 225 186 359 118z m-2891
-161 c137 -40 215 -193 172 -337 -27 -92 -144 -178 -242 -178 -75 0 -124 19
-182 72 -120 111 -119 280 3 388 73 64 157 83 249 55z m4379 -149 c52 -22 109
-72 135 -118 33 -60 39 -169 13 -229 -48 -108 -133 -164 -248 -163 -107 0
-185 49 -237 147 -31 59 -32 175 -1 232 26 49 75 96 128 123 49 26 158 29 210
8z"/>
<path d="M15376 13480 c11 -113 17 -147 34 -194 23 -59 23 -59 11 -52 -4 3 -5
-9 -2 -26 5 -24 14 -34 35 -39 16 -5 34 -5 40 -1 6 3 16 7 21 8 6 1 21 7 35
12 22 9 19 10 -22 9 -27 0 -48 -4 -48 -8 0 -5 -10 -4 -22 2 -22 10 -23 14 -20
137 1 70 0 142 -3 160 -5 28 -9 32 -34 30 -26 -2 -28 -5 -25 -38z m34 -40 c0
-5 -2 -10 -4 -10 -3 0 -8 5 -11 10 -3 6 -1 10 4 10 6 0 11 -4 11 -10z m20 -49
c0 -10 -6 -24 -14 -30 -11 -9 -15 -6 -19 16 -5 26 -4 27 10 8 15 -19 15 -19 9
8 -5 19 -3 26 4 22 5 -3 10 -14 10 -24z m-5 -71 c-4 -12 -9 -19 -12 -17 -3 3
-2 15 2 27 4 12 9 19 12 17 3 -3 2 -15 -2 -27z"/>
<path d="M23516 13488 c3 -4 11 -5 19 -1 21 7 19 12 -4 10 -11 0 -18 -5 -15
-9z"/>
<path d="M23594 13492 c3 -5 0 -13 -6 -15 -9 -4 -10 -6 -1 -6 17 -1 25 16 12
25 -7 4 -9 3 -5 -4z"/>
<path d="M22770 13486 c0 -2 7 -7 16 -10 8 -3 12 -2 9 4 -6 10 -25 14 -25 6z"/>
<path d="M23470 13479 c0 -5 5 -7 10 -4 6 3 10 8 10 11 0 2 -4 4 -10 4 -5 0
-10 -5 -10 -11z"/>
<path d="M23495 13460 c-3 -5 -1 -10 4 -10 6 0 11 5 11 10 0 6 -2 10 -4 10 -3
0 -8 -4 -11 -10z"/>
<path d="M23345 13424 c-10 -8 -16 -16 -13 -19 3 -3 11 1 17 9 7 8 19 12 27 9
8 -3 14 -3 14 0 0 13 -28 13 -45 1z"/>
<path d="M23054 13338 c-4 -6 -3 -13 3 -15 6 -2 10 -12 8 -21 -1 -9 0 -11 2
-4 3 6 10 12 16 12 7 0 4 5 -7 11 -15 9 -16 13 -5 20 9 6 10 9 2 9 -6 0 -15
-5 -19 -12z"/>
<path d="M23102 13343 c-10 -4 -9 -8 5 -19 10 -7 23 -13 28 -13 6 0 2 4 -8 10
-9 6 -15 14 -12 20 7 10 6 10 -13 2z"/>
<path d="M23148 13333 c7 -3 16 -2 19 1 4 3 -2 6 -13 5 -11 0 -14 -3 -6 -6z"/>
<path d="M15623 13269 c-25 -9 -31 -29 -10 -29 8 0 7 -3 -3 -10 -53 -33 64 1
125 37 17 10 12 12 -35 11 -30 0 -65 -4 -77 -9z m57 -9 c0 -5 -7 -10 -16 -10
-8 0 -12 5 -9 10 3 6 10 10 16 10 5 0 9 -4 9 -10z"/>
<path d="M22900 13259 c-17 -13 -18 -17 -5 -10 33 17 51 31 40 31 -5 0 -21
-10 -35 -21z"/>
<path d="M22965 13260 c-4 -6 -12 -7 -18 -4 -8 4 -7 2 1 -7 11 -12 14 -12 21
0 5 8 14 10 21 6 9 -5 11 -4 6 3 -9 15 -23 15 -31 2z"/>
<path d="M22765 13190 c-3 -6 1 -7 9 -4 18 7 21 14 7 14 -6 0 -13 -4 -16 -10z"/>
<path d="M22808 13188 c6 -6 18 -8 28 -6 14 3 12 5 -9 10 -19 3 -25 2 -19 -4z"/>
<path d="M8185 13170 c3 -5 8 -10 11 -10 2 0 4 5 4 10 0 6 -5 10 -11 10 -5 0
-7 -4 -4 -10z"/>
<path d="M22716 13168 c3 -5 10 -6 15 -3 13 9 11 12 -6 12 -8 0 -12 -4 -9 -9z"/>
<path d="M15430 13150 c0 -5 7 -7 15 -4 8 4 15 8 15 10 0 2 -7 4 -15 4 -8 0
-15 -4 -15 -10z"/>
<path d="M8212 13132 c-8 -5 1 -8 22 -8 19 1 32 4 29 9 -6 9 -35 9 -51 -1z"/>
<path d="M8288 13133 c6 -2 18 -2 25 0 6 3 1 5 -13 5 -14 0 -19 -2 -12 -5z"/>
<path d="M8402 13098 c2 -6 10 -13 16 -14 7 -1 8 0 2 3 -5 2 -8 9 -4 14 3 5 0
9 -6 9 -7 0 -10 -5 -8 -12z"/>
<path d="M8458 13069 c14 -5 20 -13 16 -20 -4 -8 -3 -9 5 -5 16 10 -5 36 -28
35 -10 0 -8 -3 7 -10z"/>
<path d="M8191 13036 c-7 -8 -8 -17 -3 -20 6 -3 12 3 15 14 6 24 4 25 -12 6z"/>
<path d="M8216 12997 c3 -10 9 -15 12 -12 3 3 0 11 -7 18 -10 9 -11 8 -5 -6z"/>
<path d="M8195 12980 c3 -5 8 -10 11 -10 2 0 4 5 4 10 0 6 -5 10 -11 10 -5 0
-7 -4 -4 -10z"/>
<path d="M8725 12980 c-3 -6 1 -7 9 -4 18 7 21 14 7 14 -6 0 -13 -4 -16 -10z"/>
<path d="M8830 12950 c8 -5 20 -10 25 -10 6 0 3 5 -5 10 -8 5 -19 10 -25 10
-5 0 -3 -5 5 -10z"/>
<path d="M8890 12916 c6 -6 18 -5 32 1 21 10 21 10 -9 9 -19 -1 -28 -5 -23
-10z"/>
<path d="M9010 12895 c0 -7 30 -13 34 -7 3 4 -4 9 -15 9 -10 1 -19 0 -19 -2z"/>
<path d="M9178 12853 c6 -2 18 -2 25 0 6 3 1 5 -13 5 -14 0 -19 -2 -12 -5z"/>
<path d="M8250 12825 c0 -5 5 -17 10 -25 5 -8 10 -10 10 -5 0 6 -5 17 -10 25
-5 8 -10 11 -10 5z"/>
<path d="M9213 12745 c-3 -9 -3 -18 -1 -21 3 -3 8 4 11 16 6 23 -1 27 -10 5z"/>
<path d="M8383 12627 c4 -10 2 -17 -5 -17 -6 0 -9 -3 -5 -6 3 -3 12 -2 20 3
13 7 13 10 -1 23 -14 13 -15 12 -9 -3z"/>
<path d="M9309 12630 c-8 -59 2 -86 14 -40 3 12 1 18 -5 14 -6 -4 -8 1 -3 15
3 11 4 21 1 21 -3 0 -7 -4 -7 -10z"/>
<path d="M8444 12589 c14 -11 23 -26 19 -32 -3 -7 -2 -9 2 -4 14 12 13 46 -1
40 -6 -2 -15 0 -19 6 -3 6 -11 11 -17 11 -6 0 1 -9 16 -21z"/>
<path d="M2255 12492 c-198 -302 -552 -471 -852 -408 -35 7 -63 10 -63 6 0
-13 170 -219 264 -320 383 -413 846 -728 1356 -923 242 -93 525 -162 765 -187
231 -24 642 -8 900 36 99 17 352 76 430 100 244 77 571 236 811 396 290 193
513 385 732 632 24 27 41 50 39 53 -3 2 -35 -1 -72 -8 -101 -17 -320 -7 -425
20 -166 43 -334 141 -434 251 -55 62 -116 152 -138 205 l-16 40 -21 -50 c-75
-173 -143 -276 -251 -378 -228 -214 -519 -233 -790 -52 -149 101 -300 286
-391 480 l-42 89 -27 -54 c-175 -357 -393 -601 -627 -704 -221 -96 -537 -62
-717 76 -148 115 -235 280 -336 638 -18 63 -35 120 -39 126 -3 7 -27 -21 -56
-64z m102 -763 c18 -12 44 -40 58 -63 67 -114 -15 -255 -149 -256 -124 0 -206
119 -161 235 38 101 159 141 252 84z m3536 -65 c106 -70 98 -240 -14 -303 -45
-26 -127 -28 -175 -5 -51 24 -94 96 -94 157 0 148 159 233 283 151z m-2640
-318 c176 -75 119 -346 -73 -346 -70 0 -146 51 -169 113 -57 150 95 296 242
233z m1316 -87 c99 -60 117 -176 41 -263 -40 -45 -79 -59 -143 -54 -65 5 -110
34 -137 88 -40 79 -19 169 51 219 35 26 51 31 98 31 39 0 66 -6 90 -21z"/>
<path d="M8500 12546 c0 -2 7 -9 15 -16 9 -7 15 -8 15 -2 0 5 -7 12 -15 16 -8
3 -15 4 -15 2z"/>
<path d="M8544 12536 c1 -9 7 -21 13 -27 9 -9 11 -7 9 5 -1 9 -7 21 -13 27 -9
9 -11 7 -9 -5z"/>
<path d="M8610 12535 c14 -7 27 -11 30 -9 6 7 -22 24 -40 23 -9 0 -5 -6 10
-14z"/>
<path d="M8360 12537 c0 -14 143 -269 196 -350 164 -251 385 -499 638 -716 97
-83 109 -90 217 -128 472 -168 995 -245 1614 -238 539 7 1013 66 1535 192 316
76 794 232 924 301 17 9 36 17 43 18 18 3 231 101 277 127 65 36 259 272 378
457 67 106 68 104 -29 58 -695 -322 -1438 -495 -2348 -548 -500 -29 -1052 9
-1542 105 -583 115 -1219 351 -1767 654 -125 69 -136 74 -136 68z"/>
<path d="M9376 12493 c-6 -14 -5 -15 5 -6 7 7 10 15 7 18 -3 3 -9 -2 -12 -12z"/>
<path d="M8683 12463 c-7 -2 -13 -9 -13 -14 0 -6 5 -7 10 -4 6 3 10 1 10 -6 0
-10 3 -10 11 -2 6 6 17 10 23 9 6 -2 8 -1 3 1 -4 3 -4 10 -1 16 5 8 2 8 -7 0
-16 -15 -33 -17 -24 -3 7 11 6 11 -12 3z"/>
<path d="M9381 12444 c0 -11 3 -14 6 -6 3 7 2 16 -1 19 -3 4 -6 -2 -5 -13z"/>
<path d="M8718 12423 c7 -3 16 -2 19 1 4 3 -2 6 -13 5 -11 0 -14 -3 -6 -6z"/>
<path d="M8750 12406 c0 -2 7 -7 16 -10 8 -3 12 -2 9 4 -6 10 -25 14 -25 6z"/>
<path d="M8817 12379 c7 -7 15 -10 18 -7 3 3 -2 9 -12 12 -14 6 -15 5 -6 -5z"/>
<path d="M16736 12345 c-14 -11 -22 -11 -36 -2 -15 9 -33 4 -94 -27 -42 -20
-74 -41 -71 -47 4 -5 -3 -9 -14 -9 -12 0 -21 -4 -21 -8 0 -10 63 -14 108 -6
28 4 31 8 22 20 -9 10 -9 14 -1 14 6 0 11 4 11 10 0 5 -7 7 -15 4 -8 -4 -15
-2 -15 4 0 16 44 22 187 25 72 1 123 5 112 9 -10 4 -27 4 -36 1 -10 -4 -14 -2
-10 4 15 24 -96 31 -127 8z m-141 -65 c-3 -5 -12 -7 -20 -3 -21 7 -19 13 6 13
11 0 18 -4 14 -10z"/>
<path d="M8900 12340 c8 -5 20 -10 25 -10 6 0 3 5 -5 10 -8 5 -19 10 -25 10
-5 0 -3 -5 5 -10z"/>
<path d="M8943 12331 c0 -11 5 -18 9 -15 4 3 5 11 1 19 -7 21 -12 19 -10 -4z"/>
<path d="M9078 12293 c7 -3 16 -2 19 1 4 3 -2 6 -13 5 -11 0 -14 -3 -6 -6z"/>
<path d="M16981 12280 c13 -10 18 -19 12 -20 -7 0 -13 5 -13 10 0 6 -4 10 -9
10 -6 0 -9 -8 -8 -18 1 -15 9 -19 45 -17 41 1 43 0 37 -24 -4 -20 -3 -22 5
-11 9 13 10 13 10 0 -1 -30 -29 -55 -59 -52 -16 2 -32 -2 -37 -9 -5 -9 -2 -10
11 -5 25 9 55 -2 55 -22 -1 -16 -2 -16 -14 0 -8 11 -24 16 -42 15 -18 -1 -28
3 -27 10 2 6 -7 11 -18 10 -21 -1 -20 -2 2 -17 46 -29 107 -91 145 -145 20
-30 38 -55 39 -55 1 0 1 30 1 68 l-1 67 -37 0 c-35 0 -37 2 -40 38 -4 44 2 50
53 51 37 1 37 1 34 -36 -2 -21 0 -40 4 -42 11 -7 36 12 28 21 -5 4 -13 1 -18
-7 -9 -13 -10 -13 -7 -1 7 23 29 25 35 3 2 -11 13 -22 24 -25 19 -5 15 1 -82
126 -24 32 -117 97 -137 97 -9 0 -5 -8 9 -20z m129 -96 c0 -3 -7 -1 -15 6 -8
7 -15 17 -15 22 0 5 7 3 15 -6 8 -8 15 -18 15 -22z m-25 -4 c3 -5 -1 -10 -10
-10 -9 0 -13 5 -10 10 3 6 8 10 10 10 2 0 7 -4 10 -10z m-58 -87 c-11 -10 13
-32 29 -26 9 3 12 0 9 -9 -3 -8 2 -21 11 -29 15 -12 16 -12 10 9 -11 33 0 27
12 -7 15 -41 -5 -35 -51 16 -39 43 -44 53 -25 53 6 0 8 -3 5 -7z"/>
<path d="M9095 12260 c-16 -7 -17 -9 -3 -9 9 -1 20 4 23 9 7 11 7 11 -20 0z"/>
<path d="M16644 12188 c3 -57 8 -64 24 -38 9 15 8 22 -4 35 -9 9 -13 19 -10
23 7 6 21 -11 29 -33 2 -6 11 -4 20 4 9 7 43 15 74 16 32 1 67 6 78 10 15 5
16 4 6 -3 -14 -10 -7 -32 10 -32 8 0 4 59 -6 68 -2 2 -13 -6 -24 -17 -21 -21
-47 -29 -36 -11 3 6 13 10 21 10 8 0 14 3 14 8 0 4 -45 7 -99 8 l-99 1 2 -49z
m80 36 c15 -6 15 -8 -1 -20 -25 -19 -41 -17 -17 2 18 14 18 15 -6 9 -19 -5
-22 -4 -10 4 18 13 15 12 34 5z m53 -20 c-3 -3 -12 -4 -19 -1 -8 3 -5 6 6 6
11 1 17 -2 13 -5z"/>
<path d="M9185 12220 c-3 -6 1 -7 9 -4 18 7 21 14 7 14 -6 0 -13 -4 -16 -10z"/>
<path d="M9335 12210 c3 -5 8 -10 11 -10 2 0 4 5 4 10 0 6 -5 10 -11 10 -5 0
-7 -4 -4 -10z"/>
<path d="M16456 12203 c-3 -10 -5 -22 -5 -27 0 -5 -4 -12 -11 -16 -14 -9 -20
-111 -7 -127 5 -7 7 -18 5 -25 -3 -7 1 -29 8 -48 11 -31 13 -32 14 -10 1 20 3
22 8 7 4 -10 8 33 8 95 1 73 -3 116 -10 120 -8 5 -7 11 2 20 14 14 16 28 3 28
-5 0 -12 -8 -15 -17z m-9 -105 c-3 -8 -6 -5 -6 6 -1 11 2 17 5 13 3 -3 4 -12
1 -19z m10 -60 c-3 -8 -6 -5 -6 6 -1 11 2 17 5 13 3 -3 4 -12 1 -19z m0 -50
c-3 -8 -6 -5 -6 6 -1 11 2 17 5 13 3 -3 4 -12 1 -19z"/>
<path d="M9259 12201 c11 -7 11 -10 0 -14 -11 -5 -10 -6 1 -5 8 1 26 -3 40
-10 22 -11 21 -10 -5 12 -16 14 -34 26 -40 26 -5 0 -4 -4 4 -9z"/>
<path d="M9370 12146 c0 -2 7 -7 16 -10 8 -3 12 -2 9 4 -6 10 -25 14 -25 6z"/>
<path d="M9460 12125 c-14 -8 -20 -14 -14 -15 5 0 19 7 30 15 24 18 16 19 -16
0z"/>
<path d="M9640 12084 c0 -6 7 -19 16 -30 14 -18 14 -18 3 6 -14 31 -19 36 -19
24z"/>
<path d="M17209 12058 c-1 -2 -3 -14 -4 -28 -3 -23 0 -26 32 -27 l35 -1 -28
29 c-26 28 -33 32 -35 27z m31 -38 c0 -5 -2 -10 -4 -10 -3 0 -8 5 -11 10 -3 6
-1 10 4 10 6 0 11 -4 11 -10z"/>
<path d="M16643 11944 c1 -29 5 -50 10 -47 4 2 7 -1 7 -7 0 -6 5 -8 10 -5 8 5
8 11 1 19 -6 7 -8 16 -4 19 3 4 1 7 -6 7 -7 0 -10 4 -7 9 4 5 2 20 -4 33 -7
18 -9 13 -7 -28z"/>
<path d="M17283 11943 c1 -18 6 -33 12 -33 5 0 4 -4 -3 -9 -11 -6 -8 -14 13
-36 21 -20 30 -24 36 -14 5 9 11 1 17 -22 7 -21 11 -26 11 -13 1 11 6 25 13
32 6 6 8 15 4 19 -4 4 -11 1 -16 -7 -6 -8 -10 -10 -10 -4 0 7 -8 14 -19 17
-10 2 -26 19 -35 37 -20 42 -13 51 11 13 19 -30 45 -54 52 -47 2 2 -16 25 -41
52 l-46 49 1 -34z"/>
<path d="M16466 11911 c-4 -5 3 -7 14 -4 14 4 20 0 20 -12 0 -12 -5 -15 -17
-11 -14 6 -12 2 5 -17 12 -13 19 -27 15 -31 -4 -4 -3 -10 2 -14 6 -4 20 -27
33 -52 28 -56 94 -151 101 -145 2 3 -5 19 -17 35 -12 16 -22 33 -22 37 0 4 5
0 11 -9 16 -28 24 -21 24 21 0 48 4 53 49 55 38 1 40 -1 37 -59 l-2 -30 19 28
c10 15 22 24 27 20 4 -5 5 -2 1 5 -4 7 -12 9 -18 6 -8 -5 -9 -1 -5 10 5 11 3
15 -5 10 -7 -5 -9 -2 -5 9 3 9 -4 31 -18 51 -13 19 -20 38 -17 42 4 4 1 4 -6
0 -11 -6 -10 -13 3 -33 9 -13 14 -30 11 -36 -2 -7 -5 -4 -5 6 -1 20 -17 23
-24 5 -2 -7 -2 0 1 16 3 20 1 26 -8 21 -7 -4 -5 3 3 16 15 23 15 24 -7 25 -21
2 -24 -2 -23 -37 1 -22 5 -39 10 -39 5 0 3 -10 -5 -22 -15 -22 -75 -32 -86
-13 -3 5 -5 43 -3 83 l3 72 -46 0 c-24 0 -47 -4 -50 -9z m84 -61 c0 -5 -7 -10
-15 -10 -8 0 -15 5 -15 10 0 6 7 10 15 10 8 0 15 -4 15 -10z m65 -110 c-3 -5
-11 -10 -16 -10 -6 0 -7 5 -4 10 3 6 11 10 16 10 6 0 7 -4 4 -10z"/>
<path d="M17148 11890 c9 -14 19 -27 22 -30 6 -6 23 -35 52 -91 11 -21 22 -39
25 -39 2 0 2 4 -1 8 -3 5 1 9 9 9 10 0 11 -5 5 -17 -9 -17 -4 -30 10 -30 4 0
7 30 7 66 0 47 -4 67 -14 71 -23 9 -26 -3 -9 -36 9 -16 16 -32 16 -35 0 -11
-32 2 -45 20 -17 22 -20 38 -5 29 6 -3 10 -2 10 4 0 5 -4 13 -10 16 -5 3 -10
0 -10 -7 0 -10 -3 -9 -10 2 -5 8 -7 31 -5 52 2 22 -1 38 -7 38 -6 0 -8 -11 -4
-27 3 -16 3 -22 0 -15 -3 6 -9 10 -14 7 -4 -3 -6 4 -3 14 4 15 0 20 -15 18
-19 -1 -19 -2 -4 -27z"/>
<path d="M24070 11870 c-8 -5 -10 -10 -5 -10 6 0 17 5 25 10 8 5 11 10 5 10
-5 0 -17 -5 -25 -10z"/>
<path d="M17282 11859 c2 -7 10 -15 17 -17 8 -3 12 1 9 9 -2 7 -10 15 -17 17
-8 3 -12 -1 -9 -9z"/>
<path d="M17384 11835 c-4 -8 -4 -22 0 -30 3 -9 0 -15 -9 -15 -8 0 -15 -6 -15
-13 0 -9 16 -14 46 -16 42 -2 44 -1 35 17 -6 11 -8 22 -5 25 6 6 -27 47 -39
47 -4 0 -10 -7 -13 -15z m36 -38 c0 -5 -4 -5 -10 -2 -5 3 -10 14 -10 23 0 15
2 15 10 2 5 -8 10 -19 10 -23z"/>
<path d="M24569 11823 c-13 -16 -12 -17 4 -4 16 13 21 21 13 21 -2 0 -10 -8
-17 -17z"/>
<path d="M23900 11810 c-9 -6 -10 -10 -3 -10 6 0 15 5 18 10 8 12 4 12 -15 0z"/>
<path d="M17230 11803 c0 -4 5 -15 10 -23 8 -13 10 -13 10 2 0 9 -4 20 -10 23
-5 3 -10 3 -10 -2z"/>
<path d="M23836 11802 c-2 -4 0 -14 6 -22 8 -12 9 -11 4 4 -5 14 -2 17 9 12 9
-3 13 -2 10 4 -7 12 -22 13 -29 2z"/>
<path d="M17446 11785 c4 -8 11 -15 16 -15 6 0 5 6 -2 15 -7 8 -14 15 -16 15
-2 0 -1 -7 2 -15z"/>
<path d="M17447 11753 c-10 -10 -8 -33 3 -33 5 0 14 9 20 20 8 15 8 20 -3 20
-8 0 -17 -3 -20 -7z"/>
<path d="M17462 11719 c-24 -19 -22 -39 3 -39 8 0 12 8 9 23 l-5 22 10 -22 c6
-13 17 -23 25 -23 19 0 22 -13 21 -93 l0 -69 32 5 c41 7 51 -9 47 -81 -2 -38
1 -50 9 -46 8 5 8 3 0 -7 -17 -18 -16 -29 2 -29 8 0 15 6 15 13 0 8 3 8 9 -2
5 -8 17 -12 27 -9 17 4 19 -1 16 -60 -3 -51 -1 -63 10 -57 10 6 11 5 1 -6 -24
-25 -14 -36 33 -34 25 0 48 -3 51 -8 4 -6 1 -7 -6 -3 -9 6 -11 -2 -9 -30 2
-29 8 -40 22 -42 11 -3 16 0 11 7 -3 6 -11 9 -16 6 -5 -4 -6 2 -2 11 4 11 8
13 11 6 2 -7 8 -10 13 -7 10 7 -75 175 -94 183 -4 2 -5 8 -2 12 3 5 -5 26 -18
47 -13 21 -39 66 -57 101 -17 34 -36 62 -40 62 -4 0 -11 10 -15 23 -4 13 -8
17 -12 10 -2 -7 -9 -13 -14 -13 -6 0 -7 5 -4 10 4 6 1 19 -6 28 -11 14 -11 15
1 5 8 -7 18 -13 23 -13 10 0 -30 70 -50 86 -7 6 -13 18 -13 27 0 25 -13 27
-38 6z m160 -271 c-9 -9 -12 -7 -12 12 0 19 3 21 12 12 9 -9 9 -15 0 -24z m25
-30 c-3 -8 -6 -5 -6 6 -1 11 2 17 5 13 3 -3 4 -12 1 -19z m28 -27 c3 -5 1 -12
-5 -16 -5 -3 -10 1 -10 9 0 18 6 21 15 7z m39 -88 c4 -10 0 -23 -11 -32 -10
-9 -12 -10 -6 -2 8 10 9 20 2 33 -6 10 -6 18 0 18 5 0 12 -8 15 -17z m27 -64
c11 -11 19 -23 16 -25 -5 -5 -47 30 -47 40 0 11 10 6 31 -15z"/>
<path d="M23635 11720 c3 -5 8 -10 11 -10 2 0 4 5 4 10 0 6 -5 10 -11 10 -5 0
-7 -4 -4 -10z"/>
<path d="M23579 11703 c-13 -16 -12 -17 4 -4 9 7 17 15 17 17 0 8 -8 3 -21
-13z"/>
<path d="M16745 11700 c-3 -5 -5 -10 -3 -11 19 -4 50 -6 40 -3 -6 3 -10 10 -6
15 3 5 -2 9 -10 9 -8 0 -18 -4 -21 -10z"/>
<path d="M23546 11687 c3 -10 9 -15 12 -12 3 3 0 11 -7 18 -10 9 -11 8 -5 -6z"/>
<path d="M23586 11673 c-6 -14 -5 -15 5 -6 7 7 10 15 7 18 -3 3 -9 -2 -12 -12z"/>
<path d="M24675 11678 c-264 -40 -627 -137 -828 -223 l-38 -16 43 -36 c200
-167 426 -310 701 -443 367 -177 707 -272 1102 -307 170 -15 218 -15 382 -5
474 31 794 102 1148 252 55 23 102 44 103 45 2 2 -20 0 -50 -3 -92 -12 -607
-7 -723 6 -661 77 -1223 310 -1662 689 -66 57 -69 58 -178 41z"/>
<path d="M17283 11667 c-4 -6 -1 -7 6 -3 8 5 11 3 9 -6 -3 -17 42 -118 53
-118 4 0 7 16 6 35 -1 19 -5 35 -10 35 -4 0 -6 -4 -2 -9 3 -5 0 -13 -6 -17 -7
-4 -9 -3 -5 4 3 6 2 14 -4 17 -6 4 -8 15 -5 26 5 15 3 18 -12 12 -16 -6 -16
-5 -4 11 11 13 16 14 22 4 5 -7 6 -21 3 -30 -4 -12 -1 -16 8 -13 8 3 15 18 16
33 2 25 -1 27 -34 28 -19 0 -38 -4 -41 -9z"/>
<path d="M16804 11601 c0 -38 3 -58 9 -54 6 4 8 0 5 -8 -4 -10 4 -15 29 -17
21 -1 32 2 28 8 -3 5 -2 10 4 10 11 0 8 -80 -4 -99 -6 -10 -3 -11 11 -3 11 5
26 7 34 4 8 -2 12 -1 8 3 -4 5 -3 14 3 21 7 9 -4 32 -45 86 -31 40 -61 81 -68
91 -11 16 -13 10 -14 -42z m40 -14 c14 -20 21 -37 15 -37 -6 0 -7 -4 -4 -10
10 -16 -11 -12 -25 4 -10 12 -24 93 -14 84 1 -2 14 -20 28 -41z m69 -90 c7
-18 -9 -44 -20 -33 -4 5 -2 11 5 13 10 4 10 8 1 19 -7 8 -7 14 -1 14 5 0 12
-6 15 -13z"/>
<path d="M16830 11571 c0 -5 5 -13 10 -16 6 -3 10 -2 10 4 0 5 -4 13 -10 16
-5 3 -10 2 -10 -4z"/>
<path d="M16676 11573 c9 -15 25 -35 33 -44 15 -16 16 -14 13 27 -4 42 -6 44
-34 44 l-30 0 18 -27z m34 -4 c0 -6 -4 -7 -10 -4 -5 3 -10 11 -10 16 0 6 5 7
10 4 6 -3 10 -11 10 -16z"/>
<path d="M23690 11591 c-8 -6 -18 -7 -23 -4 -5 3 -4 -4 2 -16 14 -25 23 -28
14 -4 -5 12 -2 15 9 11 9 -4 15 0 15 8 0 8 -1 14 -1 14 -1 0 -8 -4 -16 -9z"/>
<path d="M23915 11571 c3 -6 -3 -14 -12 -20 -10 -6 -13 -11 -6 -11 6 0 15 5
18 10 4 6 12 7 18 3 7 -4 6 0 -2 10 -14 18 -26 23 -16 8z"/>
<path d="M23710 11560 c-10 -6 -11 -10 -2 -10 6 0 12 -5 12 -11 0 -5 -6 -7
-12 -3 -8 4 -10 3 -5 -2 5 -5 12 -9 15 -9 4 0 12 -3 18 -7 6 -4 11 -1 11 7 0
8 -4 12 -9 9 -7 -5 -12 10 -9 29 1 9 -1 9 -19 -3z"/>
<path d="M16744 11505 c-8 -20 15 -47 34 -40 9 3 12 0 9 -9 -7 -17 15 -38 34
-33 8 2 11 2 7 0 -14 -8 -8 -33 7 -33 8 0 15 -5 15 -12 0 -18 191 -203 206
-200 8 2 14 -6 14 -18 0 -22 16 -28 22 -8 3 7 7 5 11 -6 4 -11 3 -15 -4 -10
-7 4 -10 1 -7 -6 2 -8 13 -18 23 -24 11 -6 26 -19 33 -28 21 -29 34 -21 16 10
l-16 27 20 -25 c11 -13 18 -28 15 -33 -6 -10 35 -47 51 -47 6 1 -1 11 -15 23
-17 15 -25 32 -25 53 1 30 0 31 -41 29 -42 -3 -42 -2 -37 29 11 64 14 71 36
85 23 14 23 14 4 -8 -19 -21 -19 -21 2 -21 14 0 22 6 22 17 0 24 -59 83 -76
76 -9 -3 -12 0 -9 9 7 18 -20 42 -36 32 -9 -5 -10 -2 -6 9 6 15 -9 35 -28 36
-5 1 -10 5 -10 9 0 11 -58 72 -67 72 -5 0 -8 -4 -8 -10 0 -5 6 -9 13 -7 8 1
11 -10 9 -35 -2 -21 0 -39 5 -39 4 -1 23 -3 42 -3 29 -2 34 -6 37 -31 2 -15
-2 -37 -7 -47 -9 -17 -8 -18 9 -9 10 5 32 9 48 7 25 -3 28 -7 29 -36 1 -42
-18 -62 -53 -54 -38 9 -57 25 -41 35 21 13 -31 49 -54 38 -12 -7 -17 -6 -15 3
2 7 -3 12 -10 10 -9 -2 -10 3 -3 16 11 21 -19 69 -37 58 -23 -14 -41 5 -36 37
2 18 2 26 -2 20 -10 -21 -23 -15 -17 8 5 17 2 20 -18 19 -42 -4 -45 -1 -41 38
3 34 1 38 -23 40 -15 1 -28 -4 -31 -13z m30 -11 c3 -8 2 -12 -4 -9 -6 3 -10
10 -10 16 0 14 7 11 14 -7z m233 -109 c0 -22 -30 -10 -32 12 -1 17 2 19 15 11
9 -6 17 -16 17 -23z m74 -72 c13 -16 12 -17 -3 -4 -17 13 -22 21 -14 21 2 0
10 -8 17 -17z"/>
<path d="M17368 11511 c7 -4 14 -14 16 -22 3 -20 44 -109 50 -109 2 0 3 15 2
33 0 17 -6 31 -12 30 -5 -1 -11 7 -11 18 -1 15 1 18 10 11 9 -8 12 -3 14 15 0
16 -2 21 -7 14 -6 -10 -8 -10 -12 1 -3 7 -19 14 -34 16 -19 1 -24 -1 -16 -7z"/>
<path d="M23786 11508 c3 -4 11 -5 19 -1 21 7 19 12 -4 10 -11 0 -18 -5 -15
-9z"/>
<path d="M23750 11500 c-13 -8 -12 -10 3 -10 9 0 17 5 17 10 0 12 -1 12 -20 0z"/>
<path d="M17455 11351 c-4 -3 12 -39 21 -50 3 -3 11 4 19 15 14 18 14 17 5 -9
-7 -21 -7 -26 2 -21 8 5 9 2 5 -10 -4 -11 3 -31 18 -54 15 -23 25 -30 25 -20
0 9 -4 20 -10 23 -5 3 -10 12 -10 18 0 7 8 0 18 -15 9 -16 21 -28 27 -28 5 0
4 -4 -3 -8 -9 -6 -6 -20 14 -58 38 -72 39 -107 4 -127 -16 -10 -36 -14 -47
-10 -16 6 -17 5 -3 -12 14 -17 13 -18 -3 -12 -10 4 -20 7 -23 7 -2 0 -1 6 2
14 3 8 -7 18 -25 26 -17 7 -35 18 -41 25 -6 8 -19 11 -27 8 -12 -5 -14 -3 -8
7 5 9 4 11 -3 6 -7 -4 -12 -3 -12 2 0 4 -30 28 -67 53 -37 24 -83 58 -102 76
-20 18 -36 31 -38 30 -1 -2 0 -12 3 -24 4 -14 12 -20 22 -16 15 4 15 3 0 -9
-16 -14 -16 -16 0 -32 16 -16 16 -17 -2 -10 -14 5 -17 4 -12 -4 4 -7 22 -11
41 -9 44 5 63 -6 47 -26 -7 -8 -12 -19 -11 -23 5 -20 -14 -62 -31 -70 -16 -8
-13 -13 25 -42 28 -22 49 -31 57 -26 7 5 22 10 33 11 16 2 17 1 5 -6 -8 -5
-19 -7 -25 -4 -5 2 1 -4 15 -15 14 -12 27 -18 30 -16 2 3 -2 10 -10 15 -12 8
-11 9 5 7 11 -2 19 2 18 9 -2 7 4 10 13 6 13 -5 13 -8 -2 -24 -9 -11 -13 -19
-8 -19 19 0 33 16 32 35 -2 18 -10 20 -76 23 -42 1 -79 5 -84 8 -12 7 0 66 18
84 8 8 14 10 14 3 0 -7 24 -10 65 -9 36 0 65 -2 65 -7 0 -4 11 -13 25 -19 19
-9 22 -14 14 -25 -6 -7 -16 -13 -21 -13 -6 0 -5 7 2 15 10 12 10 15 -2 15 -7
0 -14 -9 -15 -19 -2 -21 43 -36 51 -17 3 7 7 8 13 1 4 -6 29 -11 56 -13 40 -1
47 1 47 17 0 22 30 51 53 51 9 0 17 5 17 11 0 5 -4 7 -10 4 -5 -3 -10 -2 -10
4 0 5 5 13 10 16 6 3 10 18 9 33 l-1 27 -8 -25 -8 -25 -1 24 c-1 19 -5 23 -26
19 -29 -6 -48 12 -38 37 4 13 3 16 -5 11 -7 -4 -12 -2 -12 3 0 6 4 11 9 11 5
0 8 22 7 49 -1 48 -1 48 -34 46 -19 0 -37 -7 -41 -14 -5 -7 -7 12 -6 42 1 54
1 55 -28 53 -15 0 -30 -3 -32 -5z m26 -24 c-10 -9 -11 -8 -5 6 3 10 9 15 12
12 3 -3 0 -11 -7 -18z m-235 -164 c0 -11 6 -18 16 -18 22 0 33 -12 11 -12 -27
-1 -57 28 -41 39 7 4 14 8 14 8 1 0 1 -8 0 -17z m110 -73 c33 -17 35 -19 10
-14 -22 5 -27 4 -21 -6 6 -10 4 -12 -9 -7 -10 4 -22 7 -27 7 -5 0 -9 4 -9 9 0
5 10 7 23 4 22 -5 22 -5 2 10 -27 22 -16 21 31 -3z m271 -2 c-3 -8 -6 -5 -6 6
-1 11 2 17 5 13 3 -3 4 -12 1 -19z m23 -38 c0 -5 -8 -10 -17 -10 -15 0 -16 2
-3 10 19 12 20 12 20 0z m-50 -76 c0 -2 -7 -4 -15 -4 -8 0 -15 4 -15 10 0 5 7
7 15 4 8 -4 15 -8 15 -10z"/>
<path d="M18003 11325 c-2 -28 0 -32 16 -28 10 3 22 0 25 -6 9 -13 53 -15 60
-2 4 5 -4 7 -16 4 -19 -4 -20 -3 -8 6 12 9 10 10 -10 6 -16 -4 -33 0 -45 10
-19 16 -19 16 10 10 32 -7 32 -7 -5 17 -25 15 -25 15 -27 -17z"/>
<path d="M18164 11236 c-1 -26 3 -31 24 -33 18 -1 21 1 11 8 -11 7 -9 9 8 9
12 0 23 -5 25 -12 3 -7 12 -9 23 -4 16 6 17 9 5 16 -8 5 -18 6 -22 4 -4 -3 -8
0 -8 6 0 8 -11 10 -32 6 -23 -4 -27 -3 -13 2 19 9 19 9 0 19 -18 10 -20 8 -21
-21z"/>
<path d="M18320 11180 c0 -5 5 -10 10 -10 6 0 10 5 10 10 0 6 -4 10 -10 10 -5
0 -10 -4 -10 -10z"/>
<path d="M18365 11163 c19 -15 19 -15 -7 -9 -30 7 -49 -11 -27 -25 23 -15 34
-10 13 6 -23 17 -17 19 25 4 17 -6 31 -15 31 -20 0 -5 8 -9 18 -9 23 0 52 -30
52 -53 0 -9 4 -17 8 -17 5 0 8 -17 7 -38 l-1 -38 77 0 77 0 -2 34 c-1 25 5 39
21 52 22 17 22 18 3 23 -11 3 -18 1 -14 -4 3 -5 0 -9 -5 -9 -6 0 -11 5 -11 11
0 7 -13 -1 -29 -18 -15 -16 -36 -33 -45 -36 -18 -7 -60 19 -64 38 -6 29 -14
45 -24 45 -5 0 -8 6 -5 13 2 6 -3 19 -11 27 -14 13 -15 13 -10 -1 4 -10 0 -15
-13 -15 -21 0 -27 16 -6 16 6 1 -6 10 -27 20 -47 24 -58 25 -31 3z m42 -19
c-3 -3 -12 -4 -19 -1 -8 3 -5 6 6 6 11 1 17 -2 13 -5z m229 -96 c4 -6 3 -8 -3
-5 -6 4 -18 -4 -27 -18 -9 -14 -25 -25 -36 -25 -11 0 -20 -5 -20 -11 0 -5 5
-7 12 -3 7 4 8 3 4 -4 -4 -6 -13 -9 -22 -5 -20 7 1 33 28 33 10 0 22 8 25 18
5 14 21 31 30 32 1 0 5 -5 9 -12z m-110 -45 c-6 -6 -36 9 -36 18 0 5 9 4 20
-3 10 -7 18 -14 16 -15z m99 -13 c-3 -5 -13 -10 -21 -10 -8 0 -12 5 -9 10 3 6
13 10 21 10 8 0 12 -4 9 -10z"/>
<path d="M9664 11143 c2 -10 6 -17 10 -16 15 3 16 11 2 22 -12 10 -14 9 -12
-6z"/>
<path d="M17810 11130 c0 -5 5 -10 11 -10 5 0 7 5 4 10 -3 6 -8 10 -11 10 -2
0 -4 -4 -4 -10z"/>
<path d="M9750 11120 c0 -5 -6 -7 -14 -4 -18 7 -30 -12 -15 -22 8 -4 9 -3 5 4
-4 7 -3 12 3 12 5 0 12 -6 14 -12 4 -10 6 -10 6 0 1 7 5 10 11 7 6 -3 7 1 4 9
-7 18 -14 21 -14 6z"/>
<path d="M17982 11090 c-7 -12 -11 -24 -8 -28 6 -10 -74 -7 -99 3 -11 5 -23
13 -27 19 -5 8 -8 7 -8 -1 0 -6 5 -15 11 -19 8 -5 8 -8 0 -13 -6 -4 24 -8 66
-8 l78 -1 2 34 c1 19 1 34 0 34 -1 0 -8 -9 -15 -20z"/>
<path d="M9917 11089 c7 -7 15 -10 18 -7 3 3 -2 9 -12 12 -14 6 -15 5 -6 -5z"/>
<path d="M18405 11080 c-11 -35 12 -51 45 -30 12 7 12 12 -4 29 -24 26 -33 26
-41 1z m30 -11 c11 -16 1 -19 -13 -3 -7 8 -8 14 -3 14 5 0 13 -5 16 -11z"/>
<path d="M9760 11076 c0 -2 7 -7 16 -10 8 -3 12 -2 9 4 -6 10 -25 14 -25 6z"/>
<path d="M9820 11070 c-9 -6 -10 -10 -3 -10 6 0 15 5 18 10 8 12 4 12 -15 0z"/>
<path d="M10070 11060 c0 -5 5 -10 11 -10 5 0 7 5 4 10 -3 6 -8 10 -11 10 -2
0 -4 -4 -4 -10z"/>
<path d="M18680 11050 c-11 -7 -7 -9 17 -7 17 1 29 5 26 10 -6 10 -25 9 -43
-3z"/>
<path d="M9891 11017 c-8 -11 -5 -16 14 -25 20 -9 23 -9 18 3 -3 8 -10 12 -16
8 -6 -4 -8 0 -4 10 8 20 3 22 -12 4z"/>
<path d="M18834 11016 c20 -16 20 -16 0 -17 -11 0 -4 -5 15 -11 20 -5 30 -12
23 -16 -6 -4 47 -7 119 -6 71 0 132 4 136 7 7 8 -49 12 -112 8 -32 -1 -37 1
-25 10 13 10 13 10 0 6 -15 -4 -112 13 -155 28 -20 7 -20 6 -1 -9z m129 -36
c5 -4 -13 -4 -39 1 -26 5 -50 11 -53 14 -8 9 83 -7 92 -15z"/>
<path d="M9934 11009 c-3 -5 2 -12 10 -15 9 -3 16 -12 16 -19 0 -14 24 -14 37
0 4 4 3 5 -3 2 -15 -9 -39 19 -24 28 5 3 10 1 10 -5 0 -6 5 -8 10 -5 6 4 8 10
5 14 -6 11 -54 11 -61 0z"/>
<path d="M17634 10999 c-16 -17 -16 -22 -4 -29 33 -21 56 -5 45 30 -8 25 -17
25 -41 -1z m24 -13 c-7 -8 -15 -12 -17 -11 -5 6 10 25 20 25 5 0 4 -6 -3 -14z"/>
<path d="M10678 11003 c7 -3 16 -2 19 1 4 3 -2 6 -13 5 -11 0 -14 -3 -6 -6z"/>
<path d="M11145 11000 c-3 -5 -1 -10 4 -10 6 0 11 5 11 10 0 6 -2 10 -4 10 -3
0 -8 -4 -11 -10z"/>
<path d="M10668 10983 c6 -2 18 -2 25 0 6 3 1 5 -13 5 -14 0 -19 -2 -12 -5z"/>
<path d="M12766 10974 c-5 -14 -4 -15 9 -4 17 14 19 20 6 20 -5 0 -12 -7 -15
-16z"/>
<path d="M11117 10969 c7 -7 15 -10 18 -7 3 3 -2 9 -12 12 -14 6 -15 5 -6 -5z"/>
<path d="M18813 10973 c9 -2 23 -2 30 0 6 3 -1 5 -18 5 -16 0 -22 -2 -12 -5z"/>
<path d="M20031 10971 c-8 -5 -20 -7 -28 -4 -7 3 -16 -3 -20 -12 -6 -17 -7
-17 -20 1 -12 17 -13 16 -13 -7 0 -19 -2 -21 -10 -9 -6 10 -28 15 -65 16 l-56
2 43 -21 c30 -15 38 -23 25 -25 -9 -2 -15 -8 -12 -12 6 -10 75 18 87 35 5 7 8
7 8 0 0 -5 7 -2 15 9 7 10 17 16 22 13 5 -3 19 1 33 9 14 7 21 13 15 13 -5 1
-16 -3 -24 -8z m-107 -34 c3 3 6 1 6 -5 0 -16 -12 -15 -36 4 -18 15 -18 15 2
5 12 -6 24 -7 28 -4z"/>
<path d="M10538 10963 c7 -3 16 -2 19 1 4 3 -2 6 -13 5 -11 0 -14 -3 -6 -6z"/>
<path d="M19178 10963 c6 -2 18 -2 25 0 6 3 1 5 -13 5 -14 0 -19 -2 -12 -5z"/>
<path d="M10060 10945 c14 -17 13 -18 -5 -11 -14 5 -17 4 -9 -4 12 -12 54 -22
54 -12 0 4 -13 16 -28 27 -26 18 -26 18 -12 0z"/>
<path d="M12590 10956 c0 -2 8 -10 18 -17 15 -13 16 -12 3 4 -13 16 -21 21
-21 13z"/>
<path d="M12650 10954 c0 -6 7 -17 15 -24 11 -9 15 -9 15 -1 0 7 5 9 12 5 7
-4 8 -3 4 5 -4 6 -12 8 -18 5 -6 -4 -14 0 -19 7 -5 8 -9 9 -9 3z"/>
<path d="M12706 10948 c3 -5 10 -6 15 -3 13 9 11 12 -6 12 -8 0 -12 -4 -9 -9z"/>
<path d="M19403 10938 c-50 -11 -57 -28 -12 -28 17 0 28 4 24 10 -3 6 1 10 9
10 9 0 16 -7 16 -15 0 -11 -11 -15 -40 -15 -22 0 -40 -4 -40 -9 0 -5 28 -7 63
-5 34 2 107 7 161 10 87 6 98 5 93 -9 -3 -9 4 -26 19 -42 13 -14 24 -21 24
-15 0 6 3 9 8 6 12 -7 72 22 72 35 0 8 -4 8 -15 -1 -13 -11 -14 -10 -9 4 4 10
18 16 37 16 29 0 30 -1 11 -15 -17 -13 -16 -13 11 -3 33 11 45 52 19 62 -8 3
-92 8 -187 10 -153 4 -160 3 -57 -4 63 -5 143 -10 176 -12 44 -2 60 -7 57 -15
-6 -15 -6 -15 -59 -3 -24 6 -97 6 -185 1 -79 -5 -146 -7 -148 -5 -2 1 12 7 30
13 l34 9 -40 2 c-32 1 -36 3 -20 10 26 11 2 11 -52 -2z m317 -47 c-16 -31 -28
-33 -26 -6 1 17 7 25 19 25 14 0 16 -4 7 -19z m23 -26 c4 -8 1 -17 -5 -21 -7
-5 -8 -2 -3 6 6 10 4 12 -10 6 -15 -5 -16 -4 -5 9 15 19 16 19 23 0z"/>
<path d="M10118 10933 c7 -3 16 -2 19 1 4 3 -2 6 -13 5 -11 0 -14 -3 -6 -6z"/>
<path d="M11468 10933 c7 -3 16 -2 19 1 4 3 -2 6 -13 5 -11 0 -14 -3 -6 -6z"/>
<path d="M19287 10934 c-4 -4 -7 -18 -7 -31 0 -21 4 -24 28 -21 21 2 27 8 27
28 0 18 -6 26 -20 28 -12 2 -24 0 -28 -4z"/>
<path d="M12593 10915 c0 -8 4 -12 9 -9 5 3 6 10 3 15 -9 13 -12 11 -12 -6z"/>
<path d="M10147 10901 c-4 -17 -3 -21 5 -13 5 5 8 16 6 23 -3 8 -7 3 -11 -10z"/>
<path d="M12619 10903 c-13 -15 -12 -15 9 -4 23 12 28 21 13 21 -5 0 -15 -7
-22 -17z"/>
<path d="M11670 10900 c-8 -5 -10 -10 -5 -10 6 0 17 5 25 10 8 5 11 10 5 10
-5 0 -17 -5 -25 -10z"/>
<path d="M11808 10903 c6 -2 18 -2 25 0 6 3 1 5 -13 5 -14 0 -19 -2 -12 -5z"/>
<path d="M12298 10903 c7 -3 16 -2 19 1 4 3 -2 6 -13 5 -11 0 -14 -3 -6 -6z"/>
<path d="M17425 10890 c-3 -5 -1 -10 4 -10 6 0 11 5 11 10 0 6 -2 10 -4 10 -3
0 -8 -4 -11 -10z"/>
<path d="M11943 10883 c15 -2 39 -2 55 0 15 2 2 4 -28 4 -30 0 -43 -2 -27 -4z"/>
<path d="M12300 10886 c0 -2 7 -7 16 -10 8 -3 12 -2 9 4 -6 10 -25 14 -25 6z"/>
<path d="M10211 10864 c0 -11 3 -14 6 -6 3 7 2 16 -1 19 -3 4 -6 -2 -5 -13z"/>
<path d="M10356 10864 c-11 -8 -16 -14 -10 -14 13 0 39 18 34 24 -3 2 -14 -2
-24 -10z"/>
<path d="M12443 10863 c11 -12 25 -19 33 -16 11 4 12 9 3 19 -15 19 -20 18
-12 -3 6 -16 3 -16 -18 2 l-24 20 18 -22z"/>
<path d="M12497 10869 c7 -7 15 -10 18 -7 3 3 -2 9 -12 12 -14 6 -15 5 -6 -5z"/>
<path d="M17480 10869 c0 -5 5 -7 10 -4 6 3 10 8 10 11 0 2 -4 4 -10 4 -5 0
-10 -5 -10 -11z"/>
<path d="M17508 10863 c-9 -12 -9 -15 0 -9 7 4 12 2 12 -4 0 -7 8 -9 21 -5 14
5 19 3 15 -3 -4 -6 2 -8 16 -4 14 3 19 2 14 -6 -7 -12 10 -17 48 -13 11 1 17
-2 13 -6 -4 -4 13 -15 38 -24 34 -13 54 -15 78 -8 40 11 40 11 31 -3 -5 -8 -2
-9 12 -4 10 4 21 8 24 9 6 2 10 -8 10 -25 0 -10 -3 -9 -9 1 -6 10 -14 11 -26
3 -15 -8 -11 -11 26 -18 24 -4 48 -7 53 -6 4 2 13 -2 20 -7 8 -7 11 1 11 28
l0 38 -102 -2 c-128 -1 -140 3 -138 47 l2 33 -78 2 c-61 2 -80 -1 -91 -14z
m142 -4 c11 -8 8 -9 -13 -4 -19 4 -26 2 -22 -5 3 -5 17 -10 31 -10 13 0 24 -5
24 -10 0 -13 -45 -3 -80 17 -14 8 -17 12 -8 9 10 -3 20 -1 23 4 8 13 26 12 45
-1z m237 -90 c-9 -6 -15 -14 -12 -20 3 -5 -1 -6 -11 -2 -16 6 -15 7 2 20 10 7
23 13 28 13 6 0 3 -5 -7 -11z"/>
<path d="M19604 10869 c-4 -7 0 -9 12 -5 22 6 52 -9 41 -21 -5 -4 -12 -2 -16
6 -6 10 -12 9 -25 -4 -9 -10 -14 -20 -11 -23 3 -4 10 0 15 8 5 8 11 12 14 9 3
-2 2 -9 -2 -14 -16 -23 -51 -31 -120 -29 -67 3 -73 2 -67 -16 3 -10 0 -22 -6
-26 -9 -5 -10 -2 -6 9 7 20 6 20 -27 7 -40 -15 -33 -37 9 -32 19 2 35 9 35 14
0 6 6 8 14 5 22 -9 27 5 8 20 -16 14 -16 14 1 9 10 -3 23 -6 28 -6 6 0 7 -5 3
-11 -4 -7 0 -9 12 -6 11 4 33 9 49 13 17 4 36 11 43 17 6 5 12 6 12 1 0 -5 9
2 20 16 16 20 19 21 13 5 l-6 -20 23 20 c13 11 20 14 15 6 -5 -10 -4 -12 3 -7
16 10 15 26 -2 26 -7 0 -16 9 -19 20 -6 22 -51 28 -63 9z"/>
<path d="M12335 10860 c-3 -5 -1 -10 4 -10 6 0 11 5 11 10 0 6 -2 10 -4 10 -3
0 -8 -4 -11 -10z"/>
<path d="M10245 10845 c10 -8 24 -14 29 -12 14 5 20 27 6 27 -6 0 -8 -4 -5
-10 8 -13 -1 -13 -28 1 -21 10 -21 10 -2 -6z"/>
<path d="M12390 10850 c-25 -8 -25 -8 -2 -9 13 -1 20 -5 17 -11 -3 -5 -1 -10
5 -10 7 0 10 7 6 15 -3 8 -1 15 4 15 5 0 11 -7 13 -15 4 -12 5 -11 3 1 -1 21
-13 24 -46 14z"/>
<path d="M10375 10840 c-3 -5 -13 -7 -23 -4 -13 5 -14 4 -3 -4 7 -5 11 -15 7
-21 -5 -7 -1 -9 9 -5 9 4 13 9 11 12 -3 3 -1 11 5 19 6 7 9 13 6 13 -3 0 -8
-4 -12 -10z"/>
<path d="M12347 10811 c-4 -17 -3 -21 5 -13 5 5 8 16 6 23 -3 8 -7 3 -11 -10z"/>
<path d="M12265 10791 c-3 -5 -2 -12 3 -15 5 -3 9 1 9 9 0 17 -3 19 -12 6z"/>
<path d="M19362 10771 c-1 -14 2 -21 6 -15 4 6 20 18 37 27 l30 15 -35 -1
c-31 -1 -36 -4 -38 -26z"/>
<path d="M10540 10770 c-11 -7 -11 -10 -2 -10 8 0 10 -5 6 -12 -4 -7 -3 -9 1
-5 7 6 17 37 12 37 -1 0 -9 -5 -17 -10z"/>
<path d="M12186 10771 c-3 -5 0 -11 7 -14 8 -3 14 1 14 9 0 16 -13 19 -21 5z"/>
<path d="M12228 10763 c7 -3 16 -2 19 1 4 3 -2 6 -13 5 -11 0 -14 -3 -6 -6z"/>
<path d="M10580 10736 c4 -4 16 -4 26 2 16 9 14 10 -8 9 -15 -1 -23 -6 -18
-11z"/>
<path d="M10850 10716 c0 -2 7 -7 16 -10 8 -3 12 -2 9 4 -6 10 -25 14 -25 6z"/>
<path d="M11906 10703 c-6 -14 -5 -15 5 -6 7 7 10 15 7 18 -3 3 -9 -2 -12 -12z"/>
<path d="M17958 10713 c6 -2 18 -2 25 0 6 3 1 5 -13 5 -14 0 -19 -2 -12 -5z"/>
<path d="M18003 10707 c-3 -5 3 -6 15 -3 11 4 23 3 26 -3 3 -5 16 -7 28 -3 16
4 19 2 13 -8 -5 -8 -4 -11 2 -7 5 3 27 1 47 -5 25 -8 40 -8 44 -2 10 15 42 25
42 14 0 -6 -7 -10 -17 -10 -30 0 -8 -9 39 -15 30 -4 48 -2 53 5 9 14 -4 28
-13 14 -9 -13 -49 -13 -49 1 0 6 18 11 39 11 34 1 43 -5 40 -28 -1 -3 5 -9 13
-12 9 -3 15 1 15 9 0 8 -4 15 -9 15 -5 0 -7 8 -4 18 4 16 -3 18 -51 17 -30 0
-58 -4 -62 -8 -12 -11 -42 -8 -47 6 -4 10 -6 10 -6 0 -1 -7 -6 -13 -12 -13 -5
0 -8 3 -6 8 3 4 -26 7 -64 8 -39 0 -72 -3 -76 -9z m117 -7 c8 -5 11 -10 5 -10
-5 0 -17 5 -25 10 -8 5 -10 10 -5 10 6 0 17 -5 25 -10z m50 -10 c0 -5 -8 -10
-17 -10 -15 0 -16 2 -3 10 19 12 20 12 20 0z"/>
<path d="M18342 10705 c-1 -35 12 -50 43 -52 17 0 45 -4 63 -8 28 -7 32 -5 32
14 0 12 -6 21 -15 21 -8 0 -15 5 -15 11 0 6 7 9 15 5 8 -3 15 -1 15 4 0 16
-71 24 -81 9 -5 -8 -9 -9 -9 -3 0 6 -7 11 -15 11 -12 0 -12 -3 -2 -16 6 -9 17
-19 22 -23 6 -4 0 -8 -12 -8 -17 0 -21 4 -16 17 4 10 2 14 -5 10 -6 -4 -13 1
-15 10 -4 15 -5 15 -5 -2z m88 -25 c0 -5 -2 -10 -4 -10 -3 0 -8 5 -11 10 -3 6
-1 10 4 10 6 0 11 -4 11 -10z m30 -20 c0 -5 -2 -10 -4 -10 -3 0 -8 5 -11 10
-3 6 -1 10 4 10 6 0 11 -4 11 -10z"/>
<path d="M18753 10713 c15 -2 27 -8 27 -12 0 -5 14 -11 31 -15 22 -4 30 -10
25 -21 -3 -9 0 -15 8 -15 24 0 46 12 40 21 -3 5 5 5 18 0 13 -4 39 -6 58 -4
19 2 50 4 68 3 17 0 32 3 32 8 0 4 15 7 33 6 45 -3 84 6 84 20 0 15 -168 16
-180 1 -6 -7 -10 -6 -14 3 -2 6 -13 12 -24 12 -10 0 -19 -6 -19 -12 0 -9 -3
-9 -8 -2 -4 6 -47 11 -107 11 -55 0 -88 -1 -72 -4z m102 -13 c3 -5 1 -10 -4
-10 -6 0 -11 5 -11 10 0 6 2 10 4 10 3 0 8 -4 11 -10z m220 -1 c-44 -14 -125
-21 -125 -11 0 5 20 8 45 7 25 0 45 3 45 7 0 4 15 8 33 7 l32 -1 -30 -9z"/>
<path d="M19195 10711 c-3 -5 -1 -12 5 -16 5 -3 10 -2 10 3 0 5 11 8 25 7 14
-2 23 1 19 6 -7 12 -51 12 -59 0z"/>
<path d="M19278 10713 c7 -3 16 -2 19 1 4 3 -2 6 -13 5 -11 0 -14 -3 -6 -6z"/>
<path d="M10766 10702 c-3 -5 1 -9 9 -9 8 0 12 4 9 9 -3 4 -7 8 -9 8 -2 0 -6
-4 -9 -8z"/>
<path d="M10950 10700 c-8 -5 -24 -7 -35 -4 -18 4 -18 4 -3 -6 13 -8 25 -7 45
4 16 8 24 15 18 15 -5 1 -17 -4 -25 -9z"/>
<path d="M11567 10699 c7 -7 15 -10 18 -7 3 3 -2 9 -12 12 -14 6 -15 5 -6 -5z"/>
<path d="M11845 10701 c-9 -16 9 -20 23 -5 10 12 10 14 -2 14 -8 0 -17 -4 -21
-9z"/>
<path d="M11520 10691 c0 -10 19 -25 25 -20 1 2 -3 10 -11 17 -8 7 -14 8 -14
3z"/>
<path d="M11700 10691 c0 -5 10 -7 22 -3 16 4 19 2 13 -8 -5 -9 -4 -11 4 -6 6
4 9 12 6 17 -8 12 -45 12 -45 0z"/>
<path d="M18722 10671 c2 -22 6 -30 16 -26 7 3 23 5 35 6 20 1 20 2 -3 9 -23
7 -23 8 -3 9 12 1 25 -4 28 -9 4 -6 11 -8 16 -5 18 12 8 23 -27 29 -19 4 -42
10 -50 13 -11 4 -14 -2 -12 -26z"/>
<path d="M11808 10683 c7 -3 16 -2 19 1 4 3 -2 6 -13 5 -11 0 -14 -3 -6 -6z"/>
<path d="M10990 10670 c8 -5 20 -10 25 -10 6 0 3 5 -5 10 -8 5 -19 10 -25 10
-5 0 -3 -5 5 -10z"/>
<path d="M11165 9328 c-357 -39 -758 -224 -1119 -514 -231 -186 -539 -511
-750 -793 -15 -21 -3 -13 133 87 676 494 1411 826 2085 942 66 11 121 22 123
24 2 2 -16 37 -40 77 -25 41 -55 97 -67 126 -14 33 -29 53 -43 57 -31 8 -228
5 -322 -6z"/>
<path d="M12220 9106 c0 -10 8 -16 22 -16 12 0 19 1 17 3 -2 1 -12 9 -21 16
-15 12 -18 11 -18 -3z"/>
<path d="M27000 8934 c-25 -8 -103 -30 -175 -48 -71 -19 -123 -36 -115 -38 8
-3 43 -11 77 -17 73 -14 218 -70 285 -111 l47 -29 106 27 107 27 -38 33 c-79
68 -223 172 -236 171 -7 -1 -33 -8 -58 -15z"/>
<path d="M12124 8928 c-4 -7 -14 -23 -21 -34 -13 -20 -11 -22 49 -44 133 -49
288 -139 413 -241 128 -104 319 -308 406 -434 19 -27 37 -53 40 -58 4 -5 64
-15 135 -22 71 -8 155 -18 187 -23 31 -5 57 -7 57 -5 0 6 -122 156 -188 232
-187 214 -396 418 -554 539 -51 39 -67 45 -161 62 -81 15 -295 39 -349 40 -4
0 -10 -6 -14 -12z"/>
<path d="M11611 8914 c-545 -74 -1168 -302 -1726 -632 -235 -139 -486 -311
-707 -485 -74 -58 -97 -84 -156 -175 -172 -267 -382 -662 -500 -939 -29 -67
-52 -124 -52 -127 0 -4 44 29 98 72 214 173 486 362 722 502 69 40 148 88 175
106 50 32 441 229 501 253 l31 12 -33 62 c-48 91 -67 169 -66 267 2 180 89
346 208 396 56 24 166 18 242 -12 87 -35 139 -71 238 -166 l80 -77 17 45 c40
108 133 211 242 267 51 26 74 31 152 35 85 4 97 2 148 -22 89 -44 164 -157
181 -270 l7 -48 35 5 c19 4 37 8 40 11 2 3 -2 34 -11 68 -60 240 -44 492 40
635 51 88 158 168 251 188 32 7 33 8 16 26 -20 22 -31 22 -173 3z"/>
<path d="M24659 8851 c-35 -27 -80 -63 -99 -79 l-35 -30 85 -26 c203 -61 430
-107 710 -141 143 -18 770 -33 852 -21 40 6 45 11 71 59 35 67 80 122 130 158
22 16 36 29 31 29 -5 0 -58 -7 -119 -16 -172 -24 -650 -30 -855 -10 -223 21
-558 80 -691 121 -9 3 -43 -16 -80 -44z"/>
<path d="M27865 8064 c-33 -18 -64 -35 -69 -37 -5 -2 10 -35 33 -75 71 -122
160 -309 174 -364 4 -16 12 -28 18 -28 13 0 211 81 223 91 13 11 -293 451
-312 448 -4 -1 -34 -16 -67 -35z"/>
<path d="M16735 8060 c-3 -6 1 -7 9 -4 18 7 21 14 7 14 -6 0 -13 -4 -16 -10z"/>
<path d="M16616 8047 c-14 -11 -16 -18 -9 -31 9 -17 11 -17 16 -2 4 10 3 15
-3 11 -17 -11 -11 7 8 21 22 18 11 18 -12 1z"/>
<path d="M16855 8040 c3 -5 10 -10 16 -10 5 0 9 5 9 10 0 6 -7 10 -16 10 -8 0
-12 -4 -9 -10z"/>
<path d="M16763 8033 c9 -2 17 -8 17 -12 0 -4 9 -7 20 -8 21 -2 29 13 8 15 -7
1 -24 3 -38 5 -14 2 -17 2 -7 0z"/>
<path d="M16900 8020 c8 -5 20 -10 25 -10 6 0 3 5 -5 10 -8 5 -19 10 -25 10
-5 0 -3 -5 5 -10z"/>
<path d="M16690 7985 c-7 -9 -10 -18 -7 -21 3 -3 10 4 17 15 13 25 8 27 -10 6z"/>
<path d="M16759 7998 c-8 -27 -5 -36 11 -35 10 1 16 5 14 9 -3 4 1 8 8 8 9 0
9 3 -2 10 -14 9 -29 13 -31 8z"/>
<path d="M13137 7908 l37 -73 21 40 c11 22 27 50 35 62 8 12 12 24 10 26 -3 2
-36 7 -73 11 l-68 7 38 -73z"/>
<path d="M16546 7963 c-6 -14 -5 -15 5 -6 7 7 10 15 7 18 -3 3 -9 -2 -12 -12z"/>
<path d="M16845 7970 c3 -5 8 -10 11 -10 2 0 4 5 4 10 0 6 -5 10 -11 10 -5 0
-7 -4 -4 -10z"/>
<path d="M23758 7873 c-140 -200 -153 -223 -137 -234 32 -20 444 -150 594
-188 420 -104 926 -180 1425 -212 188 -12 789 -6 898 9 l53 7 -26 35 c-36 48
-132 202 -171 275 -31 58 -34 60 -71 59 -21 -1 -141 -7 -268 -13 -485 -25
-998 26 -1505 150 -91 22 -285 81 -432 130 -148 49 -272 89 -277 89 -4 0 -42
-48 -83 -107z"/>
<path d="M16818 7954 c12 -8 22 -20 22 -26 0 -6 -10 -3 -22 8 -13 10 -10 4 6
-14 16 -17 32 -29 35 -26 3 4 1 9 -6 11 -7 2 -9 11 -6 19 7 18 -14 44 -35 44
-12 0 -11 -4 6 -16z"/>
<path d="M17230 7950 c-13 -8 -12 -10 3 -10 9 0 17 5 17 10 0 12 -1 12 -20 0z"/>
<path d="M16531 7923 c-5 -10 -13 -17 -18 -15 -4 1 -8 -4 -8 -10 -1 -7 -6 -12
-11 -11 -6 1 -11 -5 -11 -13 0 -12 3 -12 17 1 21 19 31 19 24 1 -7 -18 12 -30
22 -15 4 8 3 9 -4 5 -16 -10 -15 7 1 23 10 11 10 13 0 7 -16 -9 -16 -1 -3 25
13 24 5 25 -9 2z"/>
<path d="M17219 7914 c-7 -9 -15 -25 -16 -37 -4 -25 -1 -22 20 21 17 35 16 40
-4 16z"/>
<path d="M16551 7917 c2 -1 13 -9 24 -17 19 -14 19 -14 6 3 -7 9 -18 17 -24
17 -6 0 -8 -1 -6 -3z"/>
<path d="M16615 7909 c-4 -6 -5 -12 -2 -15 2 -3 7 2 10 11 7 17 1 20 -8 4z"/>
<path d="M16566 7877 c3 -10 9 -15 12 -12 3 3 0 11 -7 18 -10 9 -11 8 -5 -6z"/>
<path d="M16866 7873 c-4 -9 -3 -20 1 -24 4 -4 9 3 9 17 2 28 -1 31 -10 7z"/>
<path d="M16598 7873 c7 -3 16 -2 19 1 4 3 -2 6 -13 5 -11 0 -14 -3 -6 -6z"/>
<path d="M11469 7843 l-55 -14 -26 -93 c-36 -126 -93 -242 -194 -393 -118
-175 -323 -431 -352 -439 -34 -9 -125 32 -284 130 -157 97 -319 212 -397 286
-30 27 -58 50 -62 50 -16 0 -459 -229 -579 -300 -69 -40 -151 -88 -182 -106
-172 -99 -512 -341 -712 -507 -115 -96 -265 -232 -282 -256 -35 -50 -152 -485
-203 -756 -64 -339 -103 -786 -85 -985 l7 -80 90 122 c177 241 432 514 690
741 75 66 137 122 137 124 0 3 -14 24 -31 49 -51 75 -71 131 -76 219 -12 192
80 309 242 308 73 -1 124 -14 212 -55 38 -18 73 -32 80 -31 7 0 11 -4 10 -9
-1 -6 3 -12 9 -14 6 -3 15 21 22 56 33 178 168 310 315 310 64 0 139 -40 185
-98 l39 -50 32 19 c60 36 366 194 491 252 532 250 1119 456 1631 573 l75 17
-45 40 c-263 234 -504 573 -621 875 -7 17 -15 32 -19 31 -3 -1 -31 -8 -62 -16z"/>
<path d="M16833 7835 c-7 -16 -8 -25 -1 -25 6 0 5 -6 -2 -15 -7 -8 -16 -13
-19 -10 -4 2 -8 -2 -8 -10 0 -12 3 -12 16 -2 24 19 30 29 23 45 -3 9 -1 13 5
9 7 -5 9 0 6 13 -7 25 -6 25 -20 -5z"/>
<path d="M16450 7845 c0 -6 6 -17 13 -24 10 -11 7 -12 -13 -7 -14 3 -19 3 -12
0 10 -5 10 -9 1 -20 -6 -8 -15 -12 -18 -9 -4 2 -8 -2 -8 -9 0 -13 41 -16 53
-3 4 4 8 17 8 29 1 13 5 29 9 36 5 7 4 12 -2 12 -6 0 -11 -6 -11 -12 0 -9 -4
-8 -10 2 -5 8 -10 10 -10 5z m14 -58 c-3 -8 -12 -14 -21 -14 -13 0 -13 2 3 14
10 7 19 13 21 13 1 0 0 -6 -3 -13z"/>
<path d="M16600 7835 c-7 -9 -10 -18 -6 -22 3 -3 6 -1 6 7 0 10 4 10 18 -1 15
-12 16 -12 5 2 -7 9 -10 19 -6 22 3 4 4 7 1 7 -3 0 -11 -7 -18 -15z"/>
<path d="M17142 7808 c13 -35 15 -35 14 0 -1 16 -6 29 -12 29 -9 0 -9 -8 -2
-29z"/>
<path d="M17175 7829 c-4 -6 -5 -12 -2 -15 2 -3 7 2 10 11 7 17 1 20 -8 4z"/>
<path d="M16564 7773 c-13 -20 -13 -25 -2 -16 8 7 18 10 22 6 4 -4 4 1 0 12
-7 20 -7 20 17 0 l24 -20 -19 23 c-11 12 -20 22 -21 22 -2 0 -11 -12 -21 -27z"/>
<path d="M16625 7780 c10 -11 20 -20 22 -20 2 0 -2 9 -9 20 -7 11 -17 20 -22
20 -5 0 -1 -9 9 -20z"/>
<path d="M17127 7753 c3 -7 6 -13 8 -13 2 0 5 6 8 13 3 8 -1 14 -8 14 -7 0
-11 -6 -8 -14z"/>
<path d="M16565 7740 c-3 -6 1 -7 9 -4 18 7 21 14 7 14 -6 0 -13 -4 -16 -10z"/>
<path d="M16642 7734 c8 -9 23 -14 33 -12 12 2 7 7 -16 15 -30 12 -32 11 -17
-3z"/>
<path d="M16600 7736 c0 -2 7 -7 16 -10 8 -3 12 -2 9 4 -6 10 -25 14 -25 6z"/>
<path d="M16718 7733 c7 -3 16 -2 19 1 4 3 -2 6 -13 5 -11 0 -14 -3 -6 -6z"/>
<path d="M16775 7730 c-3 -6 1 -7 9 -4 18 7 21 14 7 14 -6 0 -13 -4 -16 -10z"/>
<path d="M17065 7720 c-3 -5 1 -10 11 -10 11 0 15 -6 11 -20 -3 -11 0 -23 6
-27 7 -3 9 -3 5 2 -4 4 -3 14 3 21 8 10 7 17 -4 29 -18 18 -24 19 -32 5z"/>
<path d="M13334 7372 c12 -40 27 -226 21 -265 l-6 -42 253 -2 c139 -1 291 -6
338 -11 47 -5 86 -8 88 -7 4 4 -52 115 -70 137 -10 13 -39 20 -113 28 -190 21
-351 71 -463 145 -40 26 -52 30 -48 17z"/>
<path d="M13291 6844 c-52 -101 -129 -171 -225 -204 -163 -56 -350 -26 -579
93 l-97 50 -108 -22 c-694 -145 -1484 -437 -2129 -785 l-113 -61 0 -115 c0
-126 -19 -227 -68 -371 -42 -121 -142 -361 -158 -378 -11 -12 -25 -13 -86 -3
-163 25 -471 130 -586 199 l-55 34 -26 -25 c-14 -13 -49 -42 -77 -63 -93 -69
-336 -299 -460 -435 -177 -194 -285 -329 -398 -499 l-56 -85 10 -70 c5 -38 10
-75 10 -82 0 -9 12 -4 33 14 78 66 158 79 242 40 141 -65 204 -241 161 -446
-8 -36 -13 -66 -12 -66 0 -1 51 53 112 120 102 112 196 202 434 417 280 253
727 567 1165 819 134 77 651 340 669 340 3 0 43 17 88 38 103 48 415 177 568
235 96 36 115 47 113 63 -2 10 -8 54 -15 97 -28 188 48 381 176 450 34 18 57
22 142 22 94 0 104 -2 168 -35 93 -47 176 -133 225 -233 l39 -78 37 46 c51 62
145 135 233 181 63 33 83 38 157 42 77 4 90 2 139 -22 49 -24 91 -62 113 -101
7 -11 29 -11 143 6 335 47 772 68 1055 51 93 -6 171 -10 172 -8 5 5 -116 354
-167 482 -52 130 -149 355 -157 364 -13 14 -242 30 -505 36 l-296 7 -31 -59z"/>
<path d="M22992 6443 c-19 -35 -142 -409 -177 -538 -125 -457 -195 -940 -195
-1352 l0 -112 48 -15 c26 -8 124 -37 217 -66 724 -220 1556 -368 2425 -432
233 -17 1019 -17 1250 0 390 29 771 75 1050 128 453 85 977 264 1503 513 l127
60 0 63 c0 327 -89 865 -215 1293 -42 145 -128 402 -138 411 -2 3 -67 -23
-143 -57 -541 -240 -1311 -409 -2089 -459 -205 -13 -724 -13 -930 0 -727 46
-1420 170 -2105 377 -182 54 -545 174 -602 198 -11 4 -20 0 -26 -12z m5587
-414 c29 -34 51 -113 51 -183 l0 -61 31 55 c41 75 95 128 137 136 68 13 141
-51 126 -111 -10 -40 -84 -106 -157 -140 -78 -36 -76 -44 18 -65 134 -28 183
-87 140 -169 -15 -30 -76 -61 -118 -61 -37 0 -120 48 -148 85 l-26 35 -6 -78
c-6 -92 -25 -140 -69 -177 -27 -23 -38 -26 -72 -20 -117 18 -135 95 -51 220
24 36 42 65 40 65 -1 0 -22 -7 -45 -15 -84 -30 -171 -11 -190 41 -6 14 -10 44
-10 68 0 33 6 48 26 67 22 21 35 24 97 24 40 0 87 -3 105 -7 l33 -8 -29 43
c-77 115 -89 229 -29 273 34 24 120 14 146 -17z m-4041 -89 c18 -11 46 -41 62
-67 78 -123 4 -261 -214 -397 l-89 -56 134 0 c254 0 375 -64 387 -205 6 -68
-11 -117 -53 -157 -35 -33 -39 -34 -115 -44 -89 -12 -281 47 -367 113 -27 21
-49 31 -54 26 -6 -6 -1 -43 11 -94 27 -115 27 -248 -1 -305 -44 -91 -193 -112
-293 -41 -73 52 -91 199 -43 350 28 85 29 85 -46 17 -115 -104 -249 -168 -322
-154 -82 15 -139 99 -140 205 0 57 4 70 29 103 57 76 173 127 331 148 121 16
127 19 74 50 -108 64 -181 181 -182 290 0 135 79 228 196 228 97 0 164 -90
225 -305 23 -83 32 -101 49 -103 17 -3 24 6 38 50 36 108 101 226 166 299 61
68 152 89 217 49z m-1302 -25 c19 -12 31 -34 47 -87 5 -13 16 -6 55 33 38 38
56 49 81 49 35 0 81 -40 81 -69 0 -30 -32 -63 -84 -87 -28 -13 -43 -24 -33
-24 27 0 94 -37 101 -55 12 -33 5 -66 -18 -90 -21 -21 -29 -23 -57 -15 -18 5
-49 23 -69 38 l-35 29 -1 -36 c-1 -95 -31 -151 -83 -151 -66 0 -88 66 -51 149
11 24 20 45 20 47 0 1 -19 -6 -42 -16 -83 -38 -148 -15 -148 50 0 46 37 64
127 63 l74 -2 -46 51 c-60 66 -61 114 -5 137 27 10 54 6 86 -14z m4387 -7 c30
-15 46 -39 47 -64 0 -19 5 -17 39 17 46 46 82 51 107 14 22 -34 15 -56 -28
-84 l-37 -24 32 -16 c26 -13 33 -23 35 -53 2 -29 -1 -39 -18 -48 -25 -13 -57
-5 -87 23 l-23 20 0 -25 c0 -32 -20 -91 -34 -100 -19 -13 -54 -9 -70 8 -20 19
-20 56 -1 93 l14 28 -41 -14 c-51 -17 -84 -6 -94 33 -10 41 16 59 85 59 l59 0
-34 38 c-40 43 -43 70 -12 91 27 19 33 19 61 4z m-1172 -143 c49 -26 69 -62
69 -124 0 -74 -13 -119 -65 -222 l-43 -86 82 43 c128 65 220 68 290 6 29 -26
56 -92 56 -140 0 -106 -75 -153 -255 -160 -60 -2 -116 -5 -124 -8 -9 -3 1 -19
34 -51 64 -63 88 -96 126 -173 60 -122 48 -220 -33 -270 -42 -25 -130 -26
-176 -2 -71 38 -141 186 -158 331 l-7 62 -27 -83 c-52 -161 -119 -255 -198
-279 -105 -31 -223 55 -207 151 14 78 101 180 226 266 51 35 65 50 62 65 -5
17 -15 19 -87 19 -148 0 -257 32 -292 85 -9 14 -19 45 -21 68 -6 49 9 87 54
131 87 88 256 76 370 -28 22 -20 42 -36 44 -36 2 0 4 71 4 158 0 142 2 161 22
197 26 50 61 83 99 95 36 12 118 3 155 -15z m-1286 -19 c37 -16 65 -60 65
-102 l0 -27 28 35 c59 78 123 98 167 53 45 -44 24 -92 -57 -130 l-49 -23 37
-6 c77 -15 110 -91 59 -141 -13 -14 -29 -25 -35 -25 -12 0 -74 32 -107 56
l-23 16 0 -51 c0 -50 -21 -108 -44 -123 -19 -13 -60 -9 -84 8 -29 20 -30 89
-2 145 l21 39 -38 -20 c-52 -28 -117 -27 -137 2 -9 12 -16 35 -16 50 0 43 38
62 121 61 38 -1 69 1 69 4 0 3 -18 25 -40 49 -58 63 -55 122 5 137 11 2 21 5
23 6 1 0 18 -5 37 -13z m2244 -226 c80 -40 185 -196 237 -350 10 -30 19 -56
19 -57 1 -1 11 0 23 4 15 4 25 17 32 47 45 173 90 278 140 319 102 87 244 33
285 -107 39 -133 -26 -275 -165 -365 l-55 -35 88 -13 c212 -31 337 -88 383
-175 20 -38 17 -135 -5 -183 -29 -64 -72 -97 -130 -103 -88 -8 -180 37 -320
158 l-72 62 16 -39 c21 -49 45 -163 45 -212 0 -105 -65 -201 -147 -218 -58
-11 -126 -7 -160 11 -17 8 -32 14 -34 13 -2 -1 -3 0 -2 2 2 2 -7 20 -20 40
-20 32 -22 49 -21 151 0 78 6 136 18 179 23 84 16 101 -26 66 -82 -69 -240
-125 -354 -125 -116 0 -171 35 -195 123 -22 84 9 173 78 220 68 46 143 62 299
62 l141 0 -50 29 c-28 15 -68 41 -90 57 -22 16 -44 26 -48 23 -5 -3 -8 -2 -7
3 2 4 -20 31 -48 59 -110 110 -123 225 -36 318 53 56 117 69 181 36z m-4204
-375 c35 -34 33 -92 -4 -171 -16 -34 -34 -65 -40 -68 -26 -16 -7 -23 41 -14
127 23 198 -26 168 -117 -20 -61 -98 -83 -177 -50 -48 20 -49 20 -18 -16 92
-111 85 -205 -18 -216 -37 -5 -52 -2 -69 13 -30 27 -55 89 -63 156 l-6 58 -26
-30 c-35 -42 -74 -60 -128 -60 -88 0 -137 88 -81 145 22 22 109 55 145 55 9 0
22 4 30 9 9 6 -5 18 -53 41 -76 37 -136 98 -136 135 0 31 38 72 74 81 52 13
114 -35 159 -121 l15 -30 7 50 c12 90 25 123 56 149 40 34 91 35 124 1z m5543
-51 c27 -18 52 -65 52 -95 0 -18 5 -15 33 19 32 40 81 72 110 72 21 0 64 -40
72 -66 8 -29 -35 -79 -80 -95 -35 -13 -38 -29 -5 -29 25 0 80 -54 80 -79 0
-86 -79 -106 -155 -40 l-35 31 0 -51 c0 -102 -46 -157 -109 -131 -52 21 -60
100 -17 165 20 30 20 30 -37 5 -85 -38 -142 -12 -135 62 4 45 35 59 121 56 37
-2 67 -1 67 1 0 2 -18 23 -40 47 -39 42 -44 56 -40 99 4 43 73 61 118 29z
m-3683 -60 c30 -14 65 -53 72 -79 1 -5 7 -28 12 -50 6 -22 11 -74 11 -115 l1
-75 31 58 c90 166 200 218 285 135 27 -27 33 -39 33 -76 0 -39 -5 -48 -52 -95
-33 -33 -82 -66 -130 -90 -43 -20 -78 -41 -78 -47 0 -5 12 -12 28 -15 132 -28
210 -60 236 -97 9 -12 16 -42 16 -65 0 -37 -6 -48 -39 -81 -35 -34 -46 -39
-95 -41 -40 -1 -69 4 -103 20 -27 12 -52 21 -56 20 -5 -1 -6 3 -3 8 4 5 1 13
-7 18 -7 4 -22 20 -33 35 l-21 26 -12 -89 c-14 -112 -33 -160 -77 -199 -28
-24 -44 -30 -80 -30 -82 0 -134 44 -134 113 0 48 20 93 78 175 43 61 43 63 16
49 -42 -22 -137 -39 -170 -31 -58 13 -91 42 -104 89 -16 57 -7 105 26 136 22
21 37 24 107 27 45 2 101 -1 125 -6 47 -11 51 -6 22 31 -35 44 -79 148 -85
202 -9 68 11 115 56 138 43 21 82 21 124 1z m-904 -424 c25 -14 49 -61 49 -97
l0 -28 18 26 c57 84 124 111 169 69 52 -48 33 -97 -50 -136 -29 -13 -44 -24
-34 -24 34 0 96 -39 103 -65 16 -64 -31 -116 -87 -96 -17 6 -45 23 -62 37
l-32 27 -6 -59 c-5 -58 -22 -102 -43 -116 -6 -4 -25 -8 -42 -8 -66 0 -87 75
-44 160 l21 41 -40 -21 c-49 -24 -108 -26 -133 -3 -19 17 -24 68 -9 92 12 18
86 31 141 24 l45 -6 -43 48 c-33 38 -42 56 -42 84 0 21 5 42 12 49 15 15 82
16 109 2z m2951 -94 c10 -7 22 -25 28 -40 l10 -27 30 30 c40 39 65 46 96 26
20 -13 24 -23 22 -47 -2 -26 -11 -36 -47 -55 -29 -15 -37 -23 -24 -23 27 0 73
-37 73 -59 0 -28 -30 -61 -54 -61 -13 0 -35 9 -49 20 -33 26 -37 25 -37 -10 0
-37 -23 -85 -45 -94 -24 -9 -64 11 -70 37 -4 13 0 42 8 65 l14 41 -28 -14
c-40 -21 -75 -19 -93 7 -35 50 -8 78 77 78 l62 0 -32 30 c-38 36 -48 62 -33
90 12 23 65 27 92 6z m-835 -58 c13 -12 28 -38 34 -58 l11 -35 47 47 c40 39
55 48 84 48 27 0 41 -7 56 -26 41 -52 19 -93 -69 -133 -30 -14 -38 -21 -24
-21 33 0 91 -27 98 -45 3 -9 6 -31 6 -48 0 -79 -85 -91 -160 -21 l-25 23 0
-47 c-1 -90 -32 -142 -84 -142 -64 0 -89 74 -52 156 l19 41 -39 -18 c-78 -39
-141 -17 -143 48 -1 34 3 40 34 56 27 14 49 17 98 13 l63 -5 -45 50 c-48 53
-58 90 -33 121 27 34 86 32 124 -4z"/>
<path d="M13710 5869 c-131 -10 -521 -56 -544 -65 -10 -4 -12 -27 -8 -98 5
-102 -6 -168 -44 -255 -53 -121 -186 -269 -350 -391 -87 -65 -258 -180 -269
-180 -2 0 -30 -16 -62 -36 -72 -47 -176 -94 -206 -94 -25 0 -21 -5 -155 162
-123 154 -249 332 -298 423 -20 39 -38 71 -39 72 -1 2 -255 -98 -385 -152
-257 -107 -682 -311 -890 -426 -70 -39 -272 -160 -400 -240 -202 -126 -680
-471 -680 -490 0 -5 -5 -9 -11 -9 -5 0 -49 -33 -96 -72 -47 -40 -110 -92 -140
-116 -87 -69 -337 -317 -450 -445 -104 -118 -277 -342 -295 -383 -8 -16 -4
-33 16 -72 82 -162 215 -363 341 -517 95 -115 261 -292 267 -285 3 3 38 55 79
115 141 209 390 504 575 680 l94 91 -36 54 c-66 103 -104 216 -104 315 0 114
59 270 127 341 59 59 102 77 192 77 127 -1 252 -66 388 -204 34 -35 64 -61 65
-58 2 2 18 35 37 73 92 183 282 298 444 268 49 -9 65 -9 82 2 53 35 318 178
485 261 991 496 2089 799 2981 822 l225 6 -3 31 c-30 250 -132 768 -157 794
-11 10 -641 11 -776 1z"/>
<path d="M15381 5213 c0 -12 2 -14 6 -4 5 11 7 11 15 0 8 -12 9 -12 6 0 -6 22
-28 25 -27 4z"/>
<path d="M15427 5200 c7 -7 20 -14 30 -15 10 0 24 -4 31 -9 16 -10 69 -19 60
-11 -3 4 -12 8 -20 9 -7 1 -23 7 -34 14 -12 6 -24 9 -27 6 -3 -3 -16 0 -29 6
-19 10 -21 10 -11 0z"/>
<path d="M15388 5163 c7 -3 16 -2 19 1 4 3 -2 6 -13 5 -11 0 -14 -3 -6 -6z"/>
<path d="M15450 5160 c-8 -5 -11 -12 -8 -16 4 -3 14 1 23 10 18 17 9 21 -15 6z"/>
<path d="M15544 5145 c-10 -8 -14 -15 -8 -15 5 0 19 7 30 15 10 8 14 15 8 15
-5 0 -19 -7 -30 -15z"/>
<path d="M15481 5141 c-10 -7 -7 -9 12 -8 14 1 23 5 20 10 -6 9 -15 9 -32 -2z"/>
<path d="M15707 5099 c7 -7 15 -10 18 -7 3 3 -2 9 -12 12 -14 6 -15 5 -6 -5z"/>
<path d="M15411 5088 c0 -9 -7 -19 -13 -21 -8 -3 -6 -6 5 -6 9 -1 17 -6 17
-12 0 -5 5 -7 11 -3 7 4 8 9 1 13 -5 3 -12 15 -15 26 -3 15 -5 16 -6 3z"/>
<path d="M15378 5083 c7 -3 16 -2 19 1 4 3 -2 6 -13 5 -11 0 -14 -3 -6 -6z"/>
<path d="M15690 5060 c-8 -5 -10 -10 -5 -10 6 0 17 5 25 10 8 5 11 10 5 10 -5
0 -17 -5 -25 -10z"/>
<path d="M15795 5056 c17 -12 45 -12 45 1 0 3 -7 3 -15 -1 -8 -3 -15 -1 -15 4
0 6 -8 10 -17 10 -15 0 -15 -2 2 -14z"/>
<path d="M15920 5011 c0 -10 19 -25 25 -20 1 2 -3 10 -11 17 -8 7 -14 8 -14 3z"/>
<path d="M15967 5009 c7 -7 15 -10 18 -7 3 3 -2 9 -12 12 -14 6 -15 5 -6 -5z"/>
<path d="M15940 4981 l-25 -7 27 -6 c15 -3 25 -2 23 3 -3 4 1 10 7 12 19 8 -3
6 -32 -2z"/>
<path d="M16074 4973 c3 -4 18 -8 32 -9 14 -2 24 0 20 3 -3 3 -17 7 -32 9 -14
1 -23 0 -20 -3z"/>
<path d="M15778 4953 c7 -3 16 -2 19 1 4 3 -2 6 -13 5 -11 0 -14 -3 -6 -6z"/>
<path d="M15708 4943 c6 -2 18 -2 25 0 6 3 1 5 -13 5 -14 0 -19 -2 -12 -5z"/>
<path d="M16207 4930 c3 -11 9 -17 15 -14 5 3 4 12 -3 20 -16 19 -18 18 -12
-6z"/>
<path d="M15805 4930 c3 -5 14 -10 23 -10 15 0 15 2 2 10 -20 13 -33 13 -25 0z"/>
<path d="M16273 4913 c9 -2 23 -2 30 0 6 3 -1 5 -18 5 -16 0 -22 -2 -12 -5z"/>
<path d="M15695 4900 c-16 -7 -17 -9 -3 -9 9 -1 20 4 23 9 7 11 7 11 -20 0z"/>
<path d="M15753 4903 c9 -2 25 -2 35 0 9 3 1 5 -18 5 -19 0 -27 -2 -17 -5z"/>
<path d="M15815 4890 c3 -5 8 -10 11 -10 2 0 4 5 4 10 0 6 -5 10 -11 10 -5 0
-7 -4 -4 -10z"/>
<path d="M16406 4877 c3 -10 9 -15 12 -12 3 3 0 11 -7 18 -10 9 -11 8 -5 -6z"/>
<path d="M15608 4866 c-10 -7 -18 -18 -18 -25 0 -6 -4 -11 -10 -11 -5 0 -10
-5 -10 -10 0 -6 8 -5 19 2 11 7 18 14 16 18 -5 8 22 30 29 23 3 -4 6 -1 6 5 0
15 -11 15 -32 -2z"/>
<path d="M15875 4870 c-18 -8 -18 -9 -2 -9 10 -1 16 -5 13 -10 -4 -5 3 -7 14
-4 16 4 18 8 9 19 -6 8 -12 14 -13 13 0 0 -10 -4 -21 -9z"/>
<path d="M14315 4853 c-954 -63 -2042 -388 -3036 -909 -79 -42 -158 -84 -176
-95 l-32 -20 24 -52 c36 -77 48 -150 43 -262 -11 -224 -128 -450 -425 -820
-77 -97 -136 -161 -148 -163 -67 -9 -508 263 -669 413 l-39 36 -31 -28 c-259
-233 -489 -491 -655 -733 l-71 -105 57 -54 c122 -115 348 -283 516 -385 132
-80 266 -148 277 -141 5 3 29 34 52 68 230 342 608 734 995 1034 831 643 1859
1120 2812 1305 159 30 172 35 168 53 -3 11 -12 49 -22 85 -11 42 -16 84 -12
120 6 64 44 156 78 187 106 97 276 28 452 -182 21 -25 27 -28 41 -16 10 9 16
29 16 60 0 102 48 234 110 304 29 34 30 37 30 140 0 57 -3 119 -6 136 l-6 31
-147 -2 c-80 -1 -168 -3 -196 -5z"/>
<path d="M15560 4850 c0 -5 5 -10 11 -10 5 0 7 5 4 10 -3 6 -8 10 -11 10 -2 0
-4 -4 -4 -10z"/>
<path d="M16423 4800 c0 -25 2 -35 4 -22 2 12 2 32 0 45 -2 12 -4 2 -4 -23z"/>
<path d="M15346 4794 c-4 -9 -4 -19 -1 -22 2 -3 7 3 11 12 4 9 4 19 1 22 -2 3
-7 -3 -11 -12z"/>
<path d="M15525 4790 c3 -5 8 -10 11 -10 2 0 4 5 4 10 0 6 -5 10 -11 10 -5 0
-7 -4 -4 -10z"/>
<path d="M15980 4781 c0 -6 4 -13 10 -16 6 -3 7 1 4 9 -7 18 -14 21 -14 7z"/>
<path d="M15958 4730 c13 -30 18 -35 20 -20 2 11 8 20 14 20 6 0 6 6 -2 15 -7
8 -16 12 -21 9 -5 -3 -9 0 -9 5 0 6 -4 11 -9 11 -5 0 -2 -18 7 -40z"/>
<path d="M15346 4745 c-3 -8 -1 -15 4 -15 6 0 10 7 10 15 0 8 -2 15 -4 15 -2
0 -6 -7 -10 -15z"/>
<path d="M16411 4740 c0 -8 4 -24 9 -35 5 -13 9 -14 9 -5 0 8 -4 24 -9 35 -5
13 -9 14 -9 5z"/>
<path d="M16451 4734 c0 -11 3 -14 6 -6 3 7 2 16 -1 19 -3 4 -6 -2 -5 -13z"/>
<path d="M15526 4723 c-6 -14 -5 -15 5 -6 7 7 10 15 7 18 -3 3 -9 -2 -12 -12z"/>
<path d="M15951 4684 c0 -11 3 -14 6 -6 3 7 2 16 -1 19 -3 4 -6 -2 -5 -13z"/>
<path d="M15975 4670 c-3 -5 -1 -10 4 -10 6 0 11 5 11 10 0 6 -2 10 -4 10 -3
0 -8 -4 -11 -10z"/>
<path d="M15520 4665 c0 -5 5 -17 10 -25 5 -8 10 -10 10 -5 0 6 -5 17 -10 25
-5 8 -10 11 -10 5z"/>
<path d="M16423 4642 c-7 -12 -8 -24 -2 -33 8 -11 9 -10 7 5 -2 10 3 21 11 24
8 3 11 0 7 -7 -5 -7 -1 -9 8 -5 13 5 13 8 1 20 -17 18 -18 18 -32 -4z"/>
<path d="M15341 4603 c-1 -23 3 -44 7 -47 4 -2 6 12 4 32 -5 56 -10 62 -11 15z"/>
<path d="M16443 4598 c-31 -40 -19 -63 13 -25 16 18 16 19 2 8 -20 -15 -25 -2
-6 17 7 7 9 12 6 12 -3 0 -10 -6 -15 -12z"/>
<path d="M15950 4591 c0 -6 4 -13 10 -16 6 -3 7 1 4 9 -7 18 -14 21 -14 7z"/>
<path d="M15980 4569 c0 -5 5 -7 10 -4 6 3 10 8 10 11 0 2 -4 4 -10 4 -5 0
-10 -5 -10 -11z"/>
<path d="M15896 4541 c-15 -16 -15 -19 -2 -24 11 -4 13 -1 9 10 -4 10 -2 14 4
10 5 -3 10 0 10 8 0 19 0 19 -21 -4z"/>
<path d="M15520 4540 c0 -4 9 -10 21 -13 11 -3 23 -15 26 -26 3 -12 9 -21 14
-21 9 0 1 28 -13 46 -11 14 -48 25 -48 14z"/>
<path d="M15345 4530 c-3 -5 -2 -18 4 -27 7 -14 9 -12 8 10 -2 30 -3 31 -12
17z"/>
<path d="M15535 4500 c10 -11 20 -18 23 -15 7 6 -18 35 -31 35 -5 0 -2 -9 8
-20z"/>
<path d="M15608 4513 c7 -3 16 -2 19 1 4 3 -2 6 -13 5 -11 0 -14 -3 -6 -6z"/>
<path d="M15849 4493 c-12 -16 -12 -17 2 -6 10 9 19 9 26 2 6 -6 10 -5 10 6 0
20 -21 19 -38 -2z"/>
<path d="M16405 4500 c-3 -5 -1 -10 4 -10 6 0 11 5 11 10 0 6 -2 10 -4 10 -3
0 -8 -4 -11 -10z"/>
<path d="M15600 4491 c0 -9 38 -12 44 -3 2 4 -7 8 -20 8 -13 1 -24 -1 -24 -5z"/>
<path d="M15667 4489 c7 -7 15 -10 18 -7 3 3 -2 9 -12 12 -14 6 -15 5 -6 -5z"/>
<path d="M16411 4464 c0 -11 3 -14 6 -6 3 7 2 16 -1 19 -3 4 -6 -2 -5 -13z"/>
<path d="M16431 4464 c0 -11 3 -14 6 -6 3 7 2 16 -1 19 -3 4 -6 -2 -5 -13z"/>
<path d="M15495 4456 c-17 -12 -17 -13 3 -11 26 2 37 11 24 19 -5 3 -17 -1
-27 -8z"/>
<path d="M15565 4435 c-16 -8 -23 -14 -14 -15 8 0 24 7 35 15 23 18 18 18 -21
0z"/>
<path d="M16409 4414 c6 -12 7 -25 3 -30 -4 -5 0 -3 9 4 9 6 18 10 21 7 2 -3
5 2 5 10 0 11 -4 12 -10 6 -7 -7 -15 -5 -24 7 -13 15 -13 15 -4 -4z"/>
<path d="M15650 4396 c0 -2 7 -7 16 -10 8 -3 12 -2 9 4 -6 10 -25 14 -25 6z"/>
<path d="M15690 4386 c0 -2 7 -7 16 -10 8 -3 12 -2 9 4 -6 10 -25 14 -25 6z"/>
<path d="M15787 4369 c7 -7 29 -13 49 -12 26 1 34 -3 30 -13 -3 -7 0 -16 6
-20 7 -4 8 -3 4 4 -4 7 -1 12 9 12 9 0 14 -4 11 -9 -3 -5 1 -11 9 -15 8 -3 14
0 12 7 -4 20 -40 41 -72 43 -16 1 -39 5 -50 9 -16 7 -18 6 -8 -6z"/>
<path d="M16422 4364 c-7 -12 -11 -14 -12 -5 0 8 -3 12 -6 9 -10 -11 16 -48
34 -47 16 1 16 2 0 6 -20 5 -22 12 -9 31 7 11 9 11 14 -2 4 -9 18 -21 32 -26
16 -6 23 -14 19 -22 -4 -7 -3 -8 5 -4 14 9 -4 36 -24 36 -7 0 -19 10 -27 22
-14 22 -15 22 -26 2z"/>
<path d="M16040 4290 c-9 -6 -10 -10 -3 -10 6 0 15 5 18 10 8 12 4 12 -15 0z"/>
<path d="M16136 4276 c10 -8 21 -12 24 -10 5 6 -21 24 -34 24 -6 0 -1 -6 10
-14z"/>
<path d="M16485 4260 c8 -45 18 -55 12 -12 -3 19 -8 37 -12 40 -3 4 -3 -9 0
-28z"/>
<path d="M16090 4270 c0 -6 7 -10 15 -10 8 0 15 2 15 4 0 2 -7 6 -15 10 -8 3
-15 1 -15 -4z"/>
<path d="M16465 4230 c-3 -5 -1 -10 4 -10 6 0 11 5 11 10 0 6 -2 10 -4 10 -3
0 -8 -4 -11 -10z"/>
<path d="M16444 4185 c11 -8 24 -15 30 -15 5 0 1 7 -10 15 -10 8 -23 14 -29
14 -5 0 -1 -6 9 -14z"/>
<path d="M13930 3820 c-422 -89 -803 -210 -1230 -393 -1034 -442 -1964 -1132
-2498 -1852 -45 -60 -82 -114 -82 -120 0 -5 37 -25 83 -42 170 -67 397 -138
397 -123 0 4 -7 27 -15 50 -22 63 -19 185 6 240 57 127 171 163 271 87 57 -44
93 -97 133 -198 46 -113 61 -115 98 -11 15 44 43 101 62 127 19 27 32 52 29
57 -3 5 -2 7 3 6 4 -1 29 10 56 26 86 51 183 47 268 -10 55 -36 64 -41 53 -22
-4 7 -3 8 4 4 7 -4 50 25 100 66 222 186 577 422 867 578 44 24 82 45 84 47 2
1 -16 56 -41 120 -118 306 -134 515 -53 680 78 159 212 213 353 142 100 -49
170 -150 194 -277 l11 -61 62 34 c266 149 481 86 503 -147 2 -32 7 -58 10 -58
3 0 48 13 102 30 92 28 350 94 471 120 l56 12 61 127 c66 135 121 272 158 388
l22 72 -75 35 c-101 48 -222 135 -310 223 -40 40 -74 73 -75 72 -2 0 -64 -13
-138 -29z"/>
<path d="M28715 2798 c-95 -37 -307 -97 -488 -137 -548 -122 -790 -173 -947
-200 -1170 -202 -2397 -151 -3605 150 -148 37 -505 138 -549 155 -23 9 -23 10
46 -94 71 -105 191 -252 304 -370 l99 -104 194 -39 c831 -166 1641 -238 2354
-210 722 28 1404 114 1882 236 230 58 365 103 394 129 41 37 214 248 276 336
130 185 130 184 40 148z"/>
<path d="M13992 2710 c-85 -22 -204 -55 -265 -74 -111 -35 -112 -36 -136 -81
-33 -62 -125 -145 -224 -203 -45 -26 -84 -47 -87 -47 -3 -1 -41 -15 -85 -32
-141 -55 -399 -123 -466 -123 -11 0 -27 13 -37 29 l-18 30 -104 -55 c-135 -72
-380 -220 -500 -303 -117 -80 -341 -247 -393 -293 l-38 -33 16 -45 c23 -65 29
-156 13 -215 l-14 -51 36 4 c662 62 1265 324 1815 787 86 72 309 288 401 388
67 74 264 335 264 351 0 10 -20 6 -178 -34z"/>
<path d="M16590 1943 c27 -37 32 -41 23 -15 -6 14 -4 15 9 4 13 -11 18 -11 24
0 4 7 4 10 -1 6 -4 -4 -14 0 -21 10 -10 13 -13 13 -14 3 0 -11 -5 -9 -22 5
-20 18 -20 17 2 -13z"/>
<path d="M16682 1903 c5 -7 14 -10 19 -7 16 10 9 23 -10 21 -15 -1 -17 -4 -9
-14z"/>
<path d="M16640 1894 c12 -14 53 -26 44 -13 -3 5 -12 9 -20 9 -8 0 -13 4 -10
8 3 5 -1 9 -9 9 -11 0 -12 -4 -5 -13z"/>
<path d="M16825 1900 c3 -5 16 -10 28 -9 21 0 21 1 2 9 -28 12 -37 12 -30 0z"/>
<path d="M16910 1887 c3 -3 16 -7 30 -9 14 -1 30 -10 37 -18 7 -9 12 -10 13
-4 0 6 -6 16 -12 21 -13 9 -77 19 -68 10z"/>
<path d="M17010 1876 c0 -2 9 -6 20 -9 11 -3 18 -1 14 4 -5 9 -34 13 -34 5z"/>
<path d="M16830 1845 c-8 -11 -10 -16 -3 -12 6 4 14 3 18 -3 3 -5 1 -10 -5
-10 -6 0 -8 -4 -5 -10 3 -5 1 -10 -5 -10 -6 0 -5 -12 5 -30 9 -17 20 -28 25
-25 6 4 10 8 10 11 0 3 -4 2 -10 -1 -5 -3 -10 -2 -10 4 0 5 -3 17 -7 27 -4 12
-3 15 5 10 8 -5 10 -1 5 11 -6 15 -4 16 8 6 12 -10 15 -8 15 6 0 11 -6 17 -12
14 -7 -2 -14 3 -16 13 -3 16 -4 16 -18 -1z"/>
<path d="M17140 1849 c0 -5 5 -7 10 -4 6 3 10 8 10 11 0 2 -4 4 -10 4 -5 0
-10 -5 -10 -11z"/>
<path d="M16710 1846 c0 -2 8 -10 18 -17 15 -13 16 -12 3 4 -13 16 -21 21 -21
13z"/>
<path d="M16767 1823 c5 -12 3 -14 -8 -8 -8 5 -11 4 -6 0 4 -5 20 -10 35 -11
15 -1 19 0 9 3 -9 2 -15 8 -12 13 3 4 -2 10 -10 13 -10 4 -12 1 -8 -10z"/>
<path d="M17420 1798 c0 -4 4 -8 9 -8 6 0 12 4 15 8 3 5 -1 9 -9 9 -8 0 -15
-4 -15 -9z"/>
<path d="M17480 1800 c-13 -8 -12 -10 3 -10 9 0 17 5 17 10 0 12 -1 12 -20 0z"/>
<path d="M17850 1780 c13 -8 12 -10 -4 -10 -11 0 -17 -3 -13 -6 3 -3 15 -3 28
1 17 6 19 9 8 16 -8 5 -18 9 -24 9 -5 0 -3 -5 5 -10z"/>
<path d="M17298 1773 c7 -3 16 -2 19 1 4 3 -2 6 -13 5 -11 0 -14 -3 -6 -6z"/>
<path d="M17468 1773 c7 -3 16 -2 19 1 4 3 -2 6 -13 5 -11 0 -14 -3 -6 -6z"/>
<path d="M17665 1770 c-16 -7 -17 -9 -3 -9 9 -1 20 4 23 9 7 11 7 11 -20 0z"/>
<path d="M18087 1769 c7 -7 15 -10 18 -7 3 3 -2 9 -12 12 -14 6 -15 5 -6 -5z"/>
<path d="M17411 1762 c0 -7 -5 -11 -9 -8 -4 2 -14 1 -22 -4 -9 -5 -19 -5 -26
1 -8 7 -15 6 -20 -2 -4 -8 -3 -9 4 -5 7 4 12 2 12 -4 0 -7 6 -10 14 -7 8 3 22
-3 31 -13 10 -11 21 -17 25 -15 5 3 10 -1 13 -7 2 -7 4 1 3 19 0 17 -4 29 -8
27 -3 -2 -9 4 -11 13 -3 10 -5 12 -6 5z m13 -43 c-4 -6 -11 -6 -20 2 -21 17
-17 31 6 19 11 -6 18 -15 14 -21z"/>
<path d="M16890 1749 c0 -4 5 -11 10 -14 6 -4 8 -11 5 -16 -4 -5 -2 -9 3 -9 5
0 14 10 21 23 l11 22 -6 -22 c-3 -14 -1 -23 6 -23 6 0 9 -4 5 -9 -3 -5 -1 -12
4 -15 8 -5 8 15 1 34 -1 3 -3 12 -4 19 -1 15 -56 25 -56 10z"/>
<path d="M17207 1753 c-3 -3 3 -19 14 -36 24 -40 24 -50 1 -38 -16 9 -18 5
-17 -39 0 -27 6 -55 13 -62 6 -6 12 -10 13 -7 0 2 2 12 4 22 3 15 1 16 -13 5
-13 -11 -15 -11 -9 5 4 9 10 25 13 35 5 14 4 15 -6 2 -9 -13 -11 -12 -8 5 2
11 10 20 18 20 8 0 15 7 15 15 1 25 15 39 33 33 23 -8 14 0 -30 24 -20 12 -39
19 -41 16z m43 -35 c0 -15 -15 -8 -28 12 -12 19 -11 20 8 8 11 -7 20 -16 20
-20z"/>
<path d="M18016 1748 c2 -3 -2 -8 -8 -11 -7 -2 -11 -7 -8 -9 3 -3 18 3 34 12
l28 18 -25 -1 c-14 -1 -23 -5 -21 -9z"/>
<path d="M18170 1710 c-9 -6 -10 -10 -3 -10 6 0 15 5 18 10 8 12 4 12 -15 0z"/>
<path d="M18277 1699 c7 -7 15 -10 18 -7 3 3 -2 9 -12 12 -14 6 -15 5 -6 -5z"/>
<path d="M18198 1693 c7 -3 16 -2 19 1 4 3 -2 6 -13 5 -11 0 -14 -3 -6 -6z"/>
<path d="M18311 1686 c10 -9 69 -36 69 -32 0 6 -55 36 -66 36 -4 0 -5 -2 -3
-4z"/>
<path d="M17001 1672 c-1 -8 -6 -10 -13 -6 -10 5 -10 4 -1 -6 15 -16 28 -8 20
12 -4 11 -6 11 -6 0z"/>
<path d="M17047 1674 c-3 -3 -3 -12 0 -20 4 -11 9 -12 19 -3 8 6 11 15 8 20
-6 10 -18 12 -27 3z"/>
<path d="M17096 1667 c3 -10 9 -15 12 -12 3 3 0 11 -7 18 -10 9 -11 8 -5 -6z"/>
<path d="M17435 1670 c4 -6 11 -8 16 -5 14 9 11 15 -7 15 -8 0 -12 -5 -9 -10z"/>
<path d="M17957 1669 c7 -7 15 -10 18 -7 3 3 -2 9 -12 12 -14 6 -15 5 -6 -5z"/>
<path d="M18135 1669 c-4 -6 -4 -13 -1 -16 3 -4 6 -1 6 6 0 7 5 9 12 5 7 -4 8
-3 4 4 -9 15 -13 15 -21 1z"/>
<path d="M17467 1640 c-3 -11 -2 -22 3 -25 4 -3 10 6 12 20 6 30 -7 34 -15 5z"/>
<path d="M17925 1642 c-2 -3 0 -12 5 -22 5 -9 7 -32 5 -51 -3 -28 -2 -31 6
-16 6 11 9 31 6 47 -3 15 -2 31 4 37 6 6 4 10 -6 10 -8 0 -17 -2 -20 -5z"/>
<path d="M18393 1643 c4 -6 2 -13 -5 -15 -8 -3 -6 -6 4 -10 17 -7 19 15 3 29
-4 4 -5 3 -2 -4z"/>
<path d="M17077 1626 c4 -6 -1 -6 -13 -2 -14 5 -16 4 -7 -5 9 -9 17 -8 34 4
21 16 21 16 1 14 -11 0 -18 -5 -15 -11z"/>
<path d="M18321 1626 c2 -2 15 -9 29 -15 24 -11 24 -11 6 3 -16 13 -49 24 -35
12z"/>
<path d="M18473 1615 c0 -8 4 -12 9 -9 5 3 6 10 3 15 -9 13 -12 11 -12 -6z"/>
<path d="M17153 1575 c0 -8 4 -12 9 -9 5 3 6 10 3 15 -9 13 -12 11 -12 -6z"/>
<path d="M17236 1561 c-5 -7 -15 -10 -25 -6 -12 5 -13 4 -4 -6 10 -9 15 -10
27 0 16 14 32 -2 20 -21 -4 -6 -3 -8 4 -4 5 3 13 0 15 -6 4 -8 6 -9 6 -2 1 7
-7 22 -17 35 -14 16 -21 19 -26 10z"/>
<path d="M18574 1555 c-18 -14 -17 -14 10 -5 16 6 36 8 43 6 8 -3 11 -1 8 4
-9 15 -38 12 -61 -5z"/>
<path d="M17427 1530 c14 -19 11 -49 -6 -60 -9 -5 -4 -7 14 -7 20 0 24 2 14 9
-10 7 -7 8 11 4 14 -3 28 -6 33 -6 4 0 7 -8 8 -17 0 -12 2 -13 6 -5 3 7 -7 24
-21 37 -14 13 -26 20 -26 15 0 -6 -4 -10 -10 -10 -5 0 -7 6 -4 13 3 8 -3 20
-13 28 -16 12 -17 12 -6 -1z"/>
<path d="M17949 1538 c-8 -27 -5 -36 9 -30 10 4 12 7 4 10 -7 2 -10 8 -6 13 3
5 3 9 0 9 -3 0 -6 -1 -7 -2z"/>
<path d="M17511 1504 c0 -11 3 -14 6 -6 3 7 2 16 -1 19 -3 4 -6 -2 -5 -13z"/>
<path d="M18124 1495 c-18 -20 -20 -26 -8 -36 7 -6 19 -9 26 -6 8 4 7 6 -4 6
-19 1 -24 16 -9 25 5 4 11 1 13 -6 3 -7 7 -5 11 6 4 10 3 15 -3 11 -6 -3 -10
-2 -10 4 0 5 6 12 13 14 6 3 8 6 2 6 -5 0 -20 -10 -31 -24z"/>
<path d="M18723 1498 c-1 -10 3 -18 9 -18 6 0 8 3 5 7 -4 3 -2 11 3 18 7 8 6
12 -3 12 -7 0 -14 -9 -14 -19z"/>
<path d="M18754 1498 c-4 -7 -4 -10 1 -6 4 4 15 2 24 -5 14 -11 14 -10 2 6
-16 20 -18 21 -27 5z"/>
<path d="M17387 1482 c5 -12 2 -14 -13 -8 -14 5 -16 4 -7 -5 9 -9 16 -8 33 4
20 14 20 15 1 20 -15 3 -18 1 -14 -11z"/>
<path d="M17950 1491 c-30 -8 -37 -46 -8 -48 11 -1 16 3 12 9 -5 8 -1 9 10 5
10 -4 15 -3 11 4 -4 5 -15 7 -26 4 -11 -4 -19 -2 -19 4 0 6 9 11 19 11 11 0
23 5 26 10 3 6 5 10 3 9 -2 -1 -14 -4 -28 -8z"/>
<path d="M17986 1482 c-3 -5 1 -9 9 -9 8 0 15 4 15 9 0 4 -4 8 -9 8 -6 0 -12
-4 -15 -8z"/>
<path d="M18866 1481 c-5 -8 40 -9 47 -1 3 3 -6 6 -19 6 -13 1 -26 -1 -28 -5z"/>
<path d="M18938 1479 c-10 -7 -10 -9 2 -10 8 0 5 -4 -8 -7 -25 -8 -31 -24 -10
-30 9 -2 8 0 -2 7 -12 9 -11 11 7 11 12 0 25 5 29 11 3 6 17 9 30 6 13 -2 21
-1 19 3 -7 12 -53 18 -67 9z"/>
<path d="M18038 1473 c7 -3 16 -2 19 1 4 3 -2 6 -13 5 -11 0 -14 -3 -6 -6z"/>
<path d="M18735 1465 c-19 -14 -19 -15 -1 -8 14 5 17 3 11 -6 -6 -10 -3 -11
13 -2 25 13 35 14 27 2 -3 -5 -1 -13 5 -16 6 -4 9 -1 8 5 -2 7 9 14 25 15 15
2 25 0 22 -6 -4 -5 2 -6 11 -2 12 4 15 3 10 -5 -10 -16 -1 -15 13 1 12 15 13
14 -54 21 -22 2 -47 6 -55 10 -9 4 -24 0 -35 -9z"/>
<path d="M18083 1455 c0 -8 4 -12 9 -9 5 3 6 10 3 15 -9 13 -12 11 -12 -6z"/>
<path d="M19030 1460 c-9 -6 -10 -10 -3 -10 6 0 15 5 18 10 8 12 4 12 -15 0z"/>
<path d="M17988 1443 c-7 -9 -7 -13 1 -13 6 0 11 4 11 9 0 5 11 8 25 7 13 -2
22 0 20 5 -8 12 -45 6 -57 -8z"/>
<path d="M19106 1447 c-16 -12 -16 -13 3 -13 11 0 18 3 15 7 -2 4 2 10 8 12 7
3 8 6 2 6 -5 1 -18 -5 -28 -12z"/>
<path d="M17740 1430 c0 -5 5 -10 11 -10 5 0 7 5 4 10 -3 6 -8 10 -11 10 -2 0
-4 -4 -4 -10z"/>
<path d="M17855 1430 c3 -5 14 -10 23 -10 15 0 15 2 2 10 -20 13 -33 13 -25 0z"/>
<path d="M18490 1431 c12 -9 13 -11 1 -11 -8 0 -12 -2 -9 -5 3 -3 16 -1 29 4
13 5 19 10 12 10 -6 1 -20 4 -30 7 -15 5 -15 4 -3 -5z"/>
<path d="M18946 1432 c-3 -5 1 -9 9 -9 8 0 12 4 9 9 -3 4 -7 8 -9 8 -2 0 -6
-4 -9 -8z"/>
<path d="M17780 1420 c-12 -7 -10 -9 8 -7 12 0 22 5 22 9 0 11 -12 10 -30 -2z"/>
<path d="M18588 1423 c7 -3 16 -2 19 1 4 3 -2 6 -13 5 -11 0 -14 -3 -6 -6z"/>
<path d="M17950 1409 c0 -5 5 -7 10 -4 6 3 10 8 10 11 0 2 -4 4 -10 4 -5 0
-10 -5 -10 -11z"/>
<path d="M17990 1410 c0 -5 4 -10 9 -10 6 0 13 5 16 10 3 6 -1 10 -9 10 -9 0
-16 -4 -16 -10z"/>
<path d="M18038 1413 c6 -2 18 -2 25 0 6 3 1 5 -13 5 -14 0 -19 -2 -12 -5z"/>
<path d="M18180 1410 c0 -5 14 -10 32 -10 36 0 35 4 -4 14 -17 4 -28 2 -28 -4z"/>
<path d="M18750 1410 c8 -5 20 -10 25 -10 6 0 3 5 -5 10 -8 5 -19 10 -25 10
-5 0 -3 -5 5 -10z"/>
<path d="M18118 1393 c7 -3 16 -2 19 1 4 3 -2 6 -13 5 -11 0 -14 -3 -6 -6z"/>
<path d="M18528 1393 c7 -3 16 -2 19 1 4 3 -2 6 -13 5 -11 0 -14 -3 -6 -6z"/>
</g>
</svg>
