<svg width="18" height="18" viewBox="0 0 18 18" fill="none" xmlns="http://www.w3.org/2000/svg">
<path d="M11.9775 12.7733C10.8682 13.7017 9.4395 14.262 7.88175 14.262C4.359 14.262 1.5 11.403 1.5 7.881C1.5 4.359 4.359 1.5 7.88175 1.5C11.403 1.5 14.2628 4.359 14.2628 7.881C14.2628 9.4395 13.7025 10.869 12.774 11.9767L16.3358 15.5392C16.4453 15.6488 16.5 15.7928 16.5 15.9375C16.5 16.3778 16.0972 16.5 15.9375 16.5C15.7935 16.5 15.6495 16.4453 15.5392 16.335L11.9775 12.7733ZM7.88175 2.62575C4.98075 2.62575 2.6265 4.98075 2.6265 7.881C2.6265 10.7812 4.98075 13.1362 7.88175 13.1362C10.7812 13.1362 13.137 10.7812 13.137 7.881C13.137 4.98075 10.7812 2.62575 7.88175 2.62575Z" fill="#022B3A"/>
</svg>
