<svg width="22" height="28" viewBox="0 0 22 28" fill="none" xmlns="http://www.w3.org/2000/svg">
<path d="M21.2958 14C21.0298 14.6883 17.7352 22.1643 16.8952 24.0497C16.0132 26.0272 14.2947 28 11.119 28H5.60183C2.25933 28 0.5 26.0167 0.5 22.5482V7.41068C0.5 5.40284 3.265 5.50551 3.265 7.31734V13.9545C3.265 14.5005 4.266 14.497 4.266 13.9545V3.28884C4.266 1.22501 7.35767 1.27984 7.35767 3.28884V13.3572C7.35767 13.9125 8.2875 13.8892 8.2875 13.3455V1.52951C8.2875 -0.47949 11.3488 -0.53899 11.3488 1.52951L11.35 13.482C11.35 14.0175 12.3137 14.0292 12.3137 13.482V3.44401C12.3137 1.54351 15.6655 1.48518 15.6655 3.44401V14.819C15.6655 15.5155 16.3503 15.6263 16.6117 15.0943C16.859 14.5892 17.8822 12.3317 17.895 12.3072C18.9252 10.15 22.3657 11.4602 21.2958 14Z" fill="#DF9928"/>
</svg>
